<?xml version="1.0" encoding="utf-8" ?>
<svg xmlns="http://www.w3.org/2000/svg" xmlns:xlink="http://www.w3.org/1999/xlink" width="2047" height="1023">
	<path fill="#D7DACE" d="M0 0L2046.25 0C2048.75 3.75313 2047.99 9.76244 2047.99 14.1208L2048.02 767.612L2048.01 954.147C2048.01 967.073 2049.66 1011.74 2047.62 1020.8C2047.36 1021.98 2046.85 1022.96 2046.25 1024L0 1024L0 0Z"/>
	<path fill="#5B6B59" d="M979.801 248.031C978.336 207.649 1003.41 185.881 1032.9 162.271C1037.83 158.327 1046.01 154.664 1049.72 149.966C1049.82 149.849 1049.9 149.727 1049.99 149.607C1050.82 151.4 1051.46 153.122 1051.51 155.116C1052.24 183.641 1033.97 224.078 1014.39 244.507C1007.84 250.171 1000.42 256.584 992.09 259.411C991.816 259.157 991.517 258.852 991.199 258.64C988.83 257.059 985.575 256.229 982.82 256.913L981.383 260.309L979.801 248.031Z"/>
	<path fill="#ADB87F" d="M1045.38 158.459L1046.62 159.811C1046.87 165.915 1044.77 172.683 1043.13 178.517C1033.15 214.06 1022.53 237.703 989.655 256.143C994.835 247.074 1014.12 218.706 1013.14 209.849L1010.98 208.91Q998.887 232.769 984.784 255.499C984.065 248.065 983.486 240.43 984.525 233.002C989.011 200.961 1021.23 176.809 1045.38 158.459Z"/>
	<path fill="#506058" d="M952.635 744.517C956.684 743.999 960.792 743.734 964.858 743.362C967.763 745.417 970.795 745.357 973.67 747.095C993.775 746.551 1018.97 740.182 1038.46 745.062C1028.86 748.268 1015.17 747.714 1004.9 748.569C979.374 750.697 953.022 752.212 927.759 756.395L929.376 758.361C934.588 758.677 940.369 758.178 945.462 759.085C929.006 761.462 912.402 763.166 895.888 765.13C888.432 766.017 879.946 767.914 872.555 767.745Q845.895 771.849 819.057 774.564C797.863 777.347 743.929 781.877 727.309 788.47Q725.603 789.148 723.947 789.939Q722.291 790.729 720.691 791.629Q719.091 792.528 717.554 793.532Q716.018 794.536 714.552 795.641Q713.086 796.745 711.697 797.945Q710.308 799.145 709.002 800.435Q707.697 801.724 706.48 803.099Q705.263 804.473 704.141 805.925C698.598 813.119 695.518 820.683 693.108 829.341C692.922 832.4 692.069 834.452 694.099 836.842C699.3 838.238 703.53 838.728 706.446 843.757C706.892 844.526 707.288 845.316 707.684 846.111C708.895 848.276 709.908 850.246 711.875 851.839C722.168 865.486 730.312 872.068 747.513 874.417C771.253 877.658 804.052 864.103 826.223 855.871L1053.76 772.784L1053.19 774.046L1057.7 777.185C1057.64 780.535 1056.65 782.208 1054.25 784.592C1047.85 790.927 1038.51 794.465 1030.44 798.09C1002.79 809.691 975.657 822.51 948.199 834.558L840.977 880.817Q828.107 886.525 815.034 891.748L791.971 901.832Q784.204 905.64 776.255 909.049C768.099 912.089 760.28 913.746 751.548 913.824C727.474 914.036 707.532 903.027 690.714 886.592Q689.771 885.497 688.867 884.369Q687.963 883.241 687.099 882.082Q686.236 880.923 685.413 879.735Q684.59 878.547 683.809 877.33Q683.029 876.114 682.291 874.871Q681.554 873.628 680.86 872.36Q680.167 871.092 679.518 869.8Q678.869 868.508 678.266 867.195Q677.663 865.881 677.106 864.548Q676.549 863.214 676.04 861.861Q675.53 860.509 675.068 859.139Q674.606 857.769 674.193 856.385Q673.779 855 673.414 853.601Q673.049 852.203 672.733 850.792Q672.418 849.382 672.151 847.961Q671.885 846.54 671.669 845.111C668.596 824.762 674.119 807.211 686.154 790.868Q686.9 789.881 687.703 788.94C694.514 780.968 703.973 774.222 714.02 771.181C730.404 766.223 766.235 764.148 784.923 762.042C840.704 755.754 896.695 749.095 952.635 744.517Z"/>
	<path fill="#D7DACE" d="M826.223 855.871L1053.76 772.784L1053.19 774.046C1039.48 783.057 1023.47 789.491 1008.55 796.184C981.509 808.31 954.44 819.822 926.747 830.403L824.645 868.876C805.764 875.936 783.987 886.656 763.999 889.067C751.831 890.535 739.012 888.379 727.872 883.326C722.661 880.962 716.726 877.549 713.583 872.602C714.901 869.029 717.06 865.227 715.062 861.48C714.999 861.362 714.913 861.257 714.838 861.146L711.875 851.839C722.168 865.486 730.312 872.068 747.513 874.417C771.253 877.658 804.052 864.103 826.223 855.871Z"/>
	<path fill="#D7DACE" d="M973.67 747.095C993.775 746.551 1018.97 740.182 1038.46 745.062C1028.86 748.268 1015.17 747.714 1004.9 748.569C979.374 750.697 953.022 752.212 927.759 756.395L929.376 758.361C934.588 758.677 940.369 758.178 945.462 759.085C929.006 761.462 912.402 763.166 895.888 765.13C888.432 766.017 879.946 767.914 872.555 767.745Q845.895 771.849 819.057 774.564C797.863 777.347 743.929 781.877 727.309 788.47Q725.603 789.148 723.947 789.939Q722.291 790.729 720.691 791.629Q719.091 792.528 717.554 793.532Q716.018 794.536 714.552 795.641Q713.086 796.745 711.697 797.945Q710.308 799.145 709.002 800.435Q707.697 801.724 706.48 803.099Q705.263 804.473 704.141 805.925C698.598 813.119 695.518 820.683 693.108 829.341C692.922 832.4 692.069 834.452 694.099 836.842C699.3 838.238 703.53 838.728 706.446 843.757C706.892 844.526 707.288 845.316 707.684 846.111C708.895 848.276 709.908 850.246 711.875 851.839L714.838 861.146C714.064 862.229 713.918 862.265 712.662 862.739L709.837 859.167C710.331 862.28 711.386 864.591 709.317 867.333C707.054 870.333 700.725 871.673 697.175 871.956C696.352 872.022 695.554 872.039 694.73 872.013L690.657 872.973C691.366 873.866 692.03 874.597 692.967 875.264C697.489 878.484 702.77 877.066 707.834 876.249C713.936 881.088 720.399 885.337 727.522 888.514C738.856 893.569 752.224 895.998 764.584 894.338C783.517 891.795 803.712 881.943 821.624 875.305Q875.893 855.187 929.899 834.372C939.949 830.34 953.227 823.188 963.819 821.911C962.797 822.154 962.01 822.116 961.32 822.929C957.329 827.63 853.173 869.717 840.084 875.626Q825.24 882.113 810.309 888.397C803.497 891.385 796.59 894.247 789.871 897.437L770.862 905.353C764.472 907.098 758.366 908.269 751.723 908.395C729.854 908.808 711.299 899.464 695.814 884.585C685.798 874.188 679.059 859.555 676.764 845.37C674.627 832.159 676.263 814.976 683.354 803.343C686.428 798.3 690.645 793.787 694.129 788.997C701.118 783.755 708.254 777.826 716.821 775.447C735.21 770.341 764.029 769.531 783.806 767.295C814.207 763.857 844.61 760.221 875.057 757.212C907.889 753.967 940.951 751.31 973.67 747.095Z"/>
	<path fill="#D7DACE" d="M687.814 835.47C689.871 833.48 690.542 830.518 693.108 829.341C692.922 832.4 692.069 834.452 694.099 836.842C699.3 838.238 703.53 838.728 706.446 843.757C706.892 844.526 707.288 845.316 707.684 846.111C708.895 848.276 709.908 850.246 711.875 851.839L714.838 861.146C714.064 862.229 713.918 862.265 712.662 862.739L709.837 859.167C710.331 862.28 711.386 864.591 709.317 867.333C707.054 870.333 700.725 871.673 697.175 871.956C696.352 872.022 695.554 872.039 694.73 872.013L690.657 872.973C670.66 846.02 687.339 849.563 687.814 835.47Z"/>
	<path fill="#506058" d="M687.814 835.47C689.871 833.48 690.542 830.518 693.108 829.341C692.922 832.4 692.069 834.452 694.099 836.842C699.3 838.238 703.53 838.728 706.446 843.757C706.892 844.526 707.288 845.316 707.684 846.111C708.895 848.276 709.908 850.246 711.875 851.839L714.838 861.146C714.064 862.229 713.918 862.265 712.662 862.739L709.837 859.167C706.355 852.58 703.131 846.782 697.546 841.676C692.994 844.133 688.339 846.462 684.221 849.616C687.572 857.164 690.901 864.69 694.73 872.013L690.657 872.973C670.66 846.02 687.339 849.563 687.814 835.47Z"/>
	<path fill="#506058" d="M864.923 763.828C885.192 759.959 907.18 758.124 927.759 756.395L929.376 758.361C934.588 758.677 940.369 758.178 945.462 759.085C929.006 761.462 912.402 763.166 895.888 765.13C888.432 766.017 879.946 767.914 872.555 767.745Q845.895 771.849 819.057 774.564C797.863 777.347 743.929 781.877 727.309 788.47Q725.603 789.148 723.947 789.939Q722.291 790.729 720.691 791.629Q719.091 792.528 717.554 793.532Q716.018 794.536 714.552 795.641Q713.086 796.745 711.697 797.945Q710.308 799.145 709.002 800.435Q707.697 801.724 706.48 803.099Q705.263 804.473 704.141 805.925C698.598 813.119 695.518 820.683 693.108 829.341C690.542 830.518 689.871 833.48 687.814 835.47C687.894 823.842 692.926 811.212 700.137 802.224C718.495 779.347 745.431 779.106 772.235 775.841C786.426 774.112 800.506 771.76 814.725 770.179Q839.847 767.184 864.923 763.828Z"/>
	<path fill="#FFE9B3" d="M1815.14 354.053C1815.27 353.929 1815.41 353.809 1815.54 353.68C1819.34 349.914 1820.53 344.212 1824.38 340.104C1822.45 344.533 1820.91 352.563 1817.75 355.832C1827.62 357.114 1853.02 377.697 1859.19 385.757C1860.42 387.36 1860.4 387.87 1860.22 389.85C1864.45 387.01 1902.96 356.581 1904.73 353.827C1904.07 360.444 1871.99 386.467 1865.69 391.417C1865.06 391.915 1864.4 392.306 1863.71 392.718C1866.67 394.74 1870.16 396.667 1871.93 399.877L1871.96 402.016C1879.27 399.007 1895.28 387.914 1900.77 382.235C1898.53 389.128 1883.7 399.78 1877.19 403.296C1877.04 403.376 1876.89 403.443 1876.74 403.517C1882.82 406.203 1894.64 419.256 1897.04 425.515C1897.52 426.772 1897.17 427.596 1896.95 428.882C1902 427.957 1907.31 427.295 1912.27 425.978C1908.26 428.137 1904.28 429.704 1899.82 430.675C1907.94 433.773 1914.64 451.165 1918.04 458.757C1934.82 496.238 1931.11 541.826 1916.59 579.428C1883.05 666.306 1789.68 736.252 1706.68 772.861C1702.52 774.697 1696.7 778.073 1692.11 777.84C1696.62 782.693 1698.26 792.71 1697.99 799.076Q1697.94 800.163 1697.83 801.246Q1697.73 802.329 1697.57 803.406Q1697.41 804.483 1697.2 805.55Q1696.99 806.617 1696.73 807.673Q1696.46 808.729 1696.14 809.77Q1695.83 810.811 1695.46 811.835Q1695.09 812.859 1694.67 813.864Q1694.26 814.869 1693.79 815.851Q1693.32 816.834 1692.8 817.792Q1692.29 818.75 1691.73 819.682Q1691.16 820.613 1690.55 821.515Q1689.95 822.417 1689.29 823.288Q1688.64 824.159 1687.95 824.997Q1687.25 825.834 1686.52 826.636Q1685.78 827.438 1685.01 828.203Q1684.23 828.967 1683.42 829.692C1677.91 834.627 1672.15 837.56 1664.77 838.333C1664.2 838.744 1664.19 838.806 1663.42 839.075C1652.34 842.948 1636.72 836.185 1627.4 830.163C1622.69 826.016 1620.42 820.195 1615.78 816.131C1612.37 818.868 1580.16 828.437 1575.55 828.106C1575.72 827.39 1575.73 827.484 1575.72 826.605C1575.67 823.725 1573.63 821.81 1571.81 819.846C1571.83 818.906 1571.82 818.16 1571.43 817.283C1569.06 811.951 1562.41 806.761 1557.08 804.694C1556.57 803.598 1554.14 802.377 1553.07 801.656L1553.43 801.304C1550.58 798.769 1547.33 798.197 1543.76 797.167L1542.63 798.253L1541.09 798.023C1540.99 797.704 1540.88 797.388 1540.8 797.066C1538.62 788.372 1555.39 756.368 1560.05 748.088C1560.84 747.74 1561.42 747.484 1562.08 746.924C1564.54 744.845 1657.33 633.379 1659.68 628.743C1659.88 628.354 1659.81 626.926 1659.85 626.42C1660.73 625.955 1661.61 625.501 1662.45 624.967C1665.14 623.265 1667.26 620.243 1667.94 617.146C1670.53 615.665 1673.08 614.385 1675.84 613.247L1675.33 614.514L1677.25 614.292L1678.36 611.95C1682.77 605.711 1690.34 596.388 1696.2 591.72C1720.15 572.658 1759.13 572.483 1787.92 564.597C1794.14 562.893 1801.2 561.764 1806.94 558.783C1798.16 558.015 1745 567.547 1734.58 570.417C1723.92 573.354 1713.85 577.686 1703.49 581.468C1707.99 578.631 1725.5 558.659 1727.1 553.459C1730.88 552.933 1735.29 552.74 1738.77 551.155C1766.41 551.714 1794.35 546.338 1821.02 539.613L1821.72 538.281C1807.54 538.901 1793.49 541.836 1779.39 543.33C1765 544.855 1749.3 544.201 1735.33 547.952C1735.59 545.936 1737.84 543.947 1738.85 541.994L1736.79 541.273L1736.57 537.837L1736.47 536.837C1741.14 536.286 1745.7 526.562 1748.93 523.004C1750.94 522.018 1785.89 483.254 1789.43 478.771C1789.53 478.65 1789.62 478.525 1789.71 478.403L1789.58 479.11L1788.71 476.114L1788.39 476.353L1786.1 474.838C1786.38 474.525 1786.9 474.006 1787.13 473.604C1790.6 467.576 1796.13 420.369 1798.79 409.396C1801.1 399.885 1815.82 358.065 1815.14 354.053Z"/>
	<path fill="#485840" d="M1800.72 483.774C1807.92 482.323 1815.61 482.018 1822.92 481.312L1823.38 484.131C1828.44 486.009 1833.85 483.529 1838.67 485.127C1830.85 487.736 1811.9 488.183 1803.54 487.943C1798.18 489.543 1792.08 489.45 1786.51 489.818C1786.94 488.072 1787.8 486.449 1788.57 484.824C1792.58 485.252 1796.75 484.357 1800.72 483.774Z"/>
	<path fill="#485840" d="M1822.92 481.312C1842.66 480.087 1862.8 479.094 1882.45 481.935C1872.06 486.454 1850.6 484.978 1838.67 485.127C1833.85 483.529 1828.44 486.009 1823.38 484.131L1822.92 481.312Z"/>
	<path fill="#485840" d="M1788.67 509.101C1809.39 506.858 1829.89 503.522 1850.71 501.727C1844.87 507.764 1808.44 511.534 1797.94 513.204C1785.12 515.176 1771.56 518.988 1758.65 519.163C1767.94 515.38 1780.22 513.93 1788.67 509.101Z"/>
	<path fill="#485840" d="M1632.01 750.738C1635.76 752.894 1639.06 755.722 1642.45 758.394L1642.02 755.789L1642.32 758.211L1643.59 755.291L1641.79 754.586C1641 751.392 1640.44 746.298 1642.06 743.347C1644.61 744.542 1646.09 753.457 1647.55 756.36C1649.41 760.078 1659.25 755.606 1665.76 757.872C1665.49 758.056 1665.21 758.247 1664.93 758.423C1661.69 760.442 1656.32 760.431 1652.53 762.065C1656.05 761.756 1659.98 761.029 1663.36 762.274L1663.76 763.262C1659.62 767.713 1653.16 767.867 1650.56 773.675C1650.42 773.765 1650.29 773.854 1650.16 773.946C1648.58 775.067 1647.54 776.297 1646.37 777.836L1644.56 777.789L1643.48 774.527C1638.19 774.604 1631.84 776.224 1626.84 777.971C1625.8 778.293 1624.66 778.348 1623.58 778.482C1625.32 777.025 1626.91 775.951 1628.93 774.936L1629.55 774.634C1628.14 774.011 1626.77 773.415 1625.47 772.604C1628.23 771.509 1630.93 770.427 1633.55 769.014C1629.39 768.771 1625.75 769.352 1621.68 770.161C1619.56 770.651 1618.22 770.535 1616.12 769.959C1619.74 764.301 1634.58 765.683 1639.5 761.009C1638.23 757.138 1634.64 753.79 1632.01 750.738Z"/>
	<path fill="#485840" d="M1800.8 523.108C1819.6 522.679 1839.14 518.757 1857.77 516.168C1849.94 520.301 1840.48 522.062 1831.88 523.817C1801.95 529.925 1766.59 530.146 1738.85 541.994L1736.79 541.273L1736.57 537.837L1736.47 536.837C1741.14 536.286 1745.7 526.562 1748.93 523.004L1750.86 525.43C1751.05 527.66 1748.84 529.026 1748.86 531.382C1754.52 529.811 1760.2 528.194 1766.03 527.465C1776.5 526.156 1791.04 526.646 1800.8 523.108Z"/>
	<path fill="#506058" d="M1678.36 611.95C1678.58 611.902 1678.81 611.858 1679.03 611.807C1686.91 610.024 1695.26 603.881 1702.8 600.57C1726.7 590.074 1756.27 580.178 1782.21 578.25C1773.52 583.543 1761.62 585.174 1751.91 588.007C1723.86 596.189 1692.69 607.017 1669.56 625.325C1657.21 635.094 1647.4 649.306 1637.39 661.433L1594.35 713.715C1588.53 720.91 1581 733.264 1573.33 737.878C1578.43 743.272 1581.49 756.815 1585.75 764.061C1591.98 774.637 1601.68 782.517 1609.4 791.885C1611.02 789.751 1612.64 786.233 1612.45 783.473C1612.44 783.316 1612.39 783.163 1612.36 783.008C1614.43 786.753 1613.6 802.368 1615.22 808.784L1614.1 810.909C1614.14 810.733 1614.19 810.559 1614.21 810.38C1614.68 805.127 1608.63 800.793 1605.23 797.614C1592.27 785.516 1582.46 775.681 1574.67 759.547C1572.15 754.335 1570.76 747.859 1567.35 743.237C1567.38 747.448 1561.07 756.003 1559.09 760.031C1555.87 766.585 1546.05 794.625 1543.76 797.167L1542.63 798.253L1541.09 798.023C1540.99 797.704 1540.88 797.388 1540.8 797.066C1538.62 788.372 1555.39 756.368 1560.05 748.088C1560.84 747.74 1561.42 747.484 1562.08 746.924C1564.54 744.845 1657.33 633.379 1659.68 628.743C1659.88 628.354 1659.81 626.926 1659.85 626.42C1660.73 625.955 1661.61 625.501 1662.45 624.967C1665.14 623.265 1667.26 620.243 1667.94 617.146C1670.53 615.665 1673.08 614.385 1675.84 613.247L1675.33 614.514L1677.25 614.292L1678.36 611.95Z"/>
	<path fill="#FFE9B3" d="M1543.76 797.167C1546.05 794.625 1555.87 766.585 1559.09 760.031C1561.07 756.003 1567.38 747.448 1567.35 743.237C1570.76 747.859 1572.15 754.335 1574.67 759.547C1582.46 775.681 1592.27 785.516 1605.23 797.614C1608.63 800.793 1614.68 805.127 1614.21 810.38C1614.19 810.559 1614.14 810.733 1614.1 810.909C1615.53 813.179 1615.99 813.508 1615.78 816.131C1612.37 818.868 1580.16 828.437 1575.55 828.106C1575.72 827.39 1575.73 827.484 1575.72 826.605C1575.67 823.725 1573.63 821.81 1571.81 819.846C1571.83 818.906 1571.82 818.16 1571.43 817.283C1569.06 811.951 1562.41 806.761 1557.08 804.694C1556.57 803.598 1554.14 802.377 1553.07 801.656L1553.43 801.304C1550.58 798.769 1547.33 798.197 1543.76 797.167Z"/>
	<path fill="#FFC176" d="M1665.76 757.872C1673.63 758.279 1682.62 762.83 1687.8 768.781C1689.89 771.18 1692.31 774.528 1692.11 777.84C1696.62 782.693 1698.26 792.71 1697.99 799.076Q1697.94 800.163 1697.83 801.246Q1697.73 802.329 1697.57 803.406Q1697.41 804.483 1697.2 805.55Q1696.99 806.617 1696.73 807.673Q1696.46 808.729 1696.14 809.77Q1695.83 810.811 1695.46 811.835Q1695.09 812.859 1694.67 813.864Q1694.26 814.869 1693.79 815.851Q1693.32 816.834 1692.8 817.792Q1692.29 818.75 1691.73 819.682Q1691.16 820.613 1690.55 821.515Q1689.95 822.417 1689.29 823.288Q1688.64 824.159 1687.95 824.997Q1687.25 825.834 1686.52 826.636Q1685.78 827.438 1685.01 828.203Q1684.23 828.967 1683.42 829.692C1677.91 834.627 1672.15 837.56 1664.77 838.333C1664.2 838.744 1664.19 838.806 1663.42 839.075C1652.34 842.948 1636.72 836.185 1627.4 830.163C1622.69 826.016 1620.42 820.195 1615.78 816.131C1615.99 813.508 1615.53 813.179 1614.1 810.909L1615.22 808.784C1613.6 802.368 1614.43 786.753 1612.36 783.008L1612.94 782.488C1616.02 779.65 1621.52 774.23 1621.68 770.161C1625.75 769.352 1629.39 768.771 1633.55 769.014C1630.93 770.427 1628.23 771.509 1625.47 772.604C1626.77 773.415 1628.14 774.011 1629.55 774.634L1628.93 774.936C1626.91 775.951 1625.32 777.025 1623.58 778.482C1624.66 778.348 1625.8 778.293 1626.84 777.971C1631.84 776.224 1638.19 774.604 1643.48 774.527L1644.56 777.789L1646.37 777.836C1647.54 776.297 1648.58 775.067 1650.16 773.946C1650.29 773.854 1650.42 773.765 1650.56 773.675C1653.16 767.867 1659.62 767.713 1663.76 763.262L1663.36 762.274C1659.98 761.029 1656.05 761.756 1652.53 762.065C1656.32 760.431 1661.69 760.442 1664.93 758.423C1665.21 758.247 1665.49 758.056 1665.76 757.872Z"/>
	<path fill="#FFE9B3" d="M1623.65 783.037C1628.62 782.422 1637.52 782.446 1641.56 786.015C1643.28 787.534 1643.08 788.776 1643.2 790.881C1641.96 793.933 1640.2 795.952 1637.15 797.291C1634.13 798.619 1630.62 798.924 1627.53 797.608C1624.08 796.141 1620.51 792.245 1619.41 788.653C1619.23 788.084 1619.14 787.506 1619.06 786.917C1621.1 785.982 1622.22 784.725 1623.65 783.037Z"/>
	<path fill="#485840" d="M1815.14 354.053C1815.27 353.929 1815.41 353.809 1815.54 353.68C1819.34 349.914 1820.53 344.212 1824.38 340.104C1822.45 344.533 1820.91 352.563 1817.75 355.832C1827.62 357.114 1853.02 377.697 1859.19 385.757C1860.42 387.36 1860.4 387.87 1860.22 389.85C1864.45 387.01 1902.96 356.581 1904.73 353.827C1904.07 360.444 1871.99 386.467 1865.69 391.417C1865.06 391.915 1864.4 392.306 1863.71 392.718C1866.67 394.74 1870.16 396.667 1871.93 399.877L1871.96 402.016C1879.27 399.007 1895.28 387.914 1900.77 382.235C1898.53 389.128 1883.7 399.78 1877.19 403.296C1877.04 403.376 1876.89 403.443 1876.74 403.517C1882.82 406.203 1894.64 419.256 1897.04 425.515C1897.52 426.772 1897.17 427.596 1896.95 428.882C1902 427.957 1907.31 427.295 1912.27 425.978C1908.26 428.137 1904.28 429.704 1899.82 430.675C1880.47 439.913 1858.55 445.219 1838.5 453.034C1828.08 457.099 1817.54 461.872 1807.75 467.294C1804.17 469.271 1800.92 471.916 1797.31 473.748C1820.37 467.647 1844.06 462.371 1866.82 455.291C1870.76 454.065 1887.81 447.423 1890.32 447.871C1886.5 454.874 1857.74 462.501 1850.07 464.747C1836.55 468.701 1805.75 473.449 1795.98 478.379C1793.12 479.825 1790.77 482.541 1788.57 484.824C1787.8 486.449 1786.94 488.072 1786.51 489.818C1785.42 490.638 1784.39 491.484 1783.11 491.992C1772.91 501.14 1762.32 519.675 1750.86 525.43L1748.93 523.004C1750.94 522.018 1785.89 483.254 1789.43 478.771C1789.53 478.65 1789.62 478.525 1789.71 478.403L1789.58 479.11L1788.71 476.114L1788.39 476.353L1786.1 474.838C1786.38 474.525 1786.9 474.006 1787.13 473.604C1790.6 467.576 1796.13 420.369 1798.79 409.396C1801.1 399.885 1815.82 358.065 1815.14 354.053Z"/>
	<path fill="#FFE9B3" d="M1863.71 392.718C1866.67 394.74 1870.16 396.667 1871.93 399.877L1871.96 402.016C1870.52 405.99 1848.5 421.94 1843.83 424.965C1836.24 432.378 1827.94 439.141 1820.22 446.47C1814.36 452.033 1809.08 458.224 1803.13 463.654C1804.69 459.024 1809.15 454.337 1812.1 450.437C1820.54 439.245 1829.09 427.768 1838.81 417.642C1846.72 409.393 1855.83 401.949 1863.24 393.277L1863.71 392.718Z"/>
	<path fill="#FFE9B3" d="M1876.74 403.517C1882.82 406.203 1894.64 419.256 1897.04 425.515C1897.52 426.772 1897.17 427.596 1896.95 428.882C1896.29 429.21 1835.59 448.845 1833.73 449.078C1831.47 453.284 1814.51 459.708 1809.57 461.29C1817.63 456.777 1825.41 449.449 1831.97 442.944C1835.81 439.898 1844.04 434.375 1845.75 429.903C1852.99 427.158 1870.04 409.58 1876.74 403.517Z"/>
	<path fill="#FFE9B3" d="M1817.75 355.832C1827.62 357.114 1853.02 377.697 1859.19 385.757C1860.42 387.36 1860.4 387.87 1860.22 389.85C1859.17 393.253 1845.61 404.298 1842.03 407.925Q1833.82 416.227 1826.38 425.223C1820.49 432.366 1814.77 443.142 1806.87 447.955C1806.96 447.859 1807.05 447.765 1807.14 447.667C1807.29 447.505 1807.43 447.335 1807.58 447.176C1811.61 442.898 1841.66 386.495 1842.69 380.494C1841.25 386.881 1829.36 399.417 1825.57 405.904C1814.58 424.696 1808.32 446.039 1797.14 464.609C1794.89 468.34 1791.86 470.932 1788.43 473.543C1790.12 471.437 1791.74 469.532 1792.48 466.88C1796.7 451.916 1799.01 436.016 1802.06 420.767C1805.42 403.941 1809.57 387.637 1814.25 371.135C1815.63 366.291 1817.81 360.896 1817.75 355.832Z"/>
	<path fill="#FFE9B3" d="M1014.39 244.507L1015.23 244.509C1054.07 244.225 1129.86 208.869 1167.06 191.824C1224.85 165.349 1282.85 131.839 1347.32 126.059Q1353.46 125.558 1359.61 125.365Q1365.77 125.172 1371.93 125.287Q1378.08 125.402 1384.23 125.825Q1390.37 126.248 1396.49 126.978Q1402.6 127.707 1408.67 128.742Q1414.74 129.777 1420.76 131.114Q1426.77 132.451 1432.7 134.088Q1438.64 135.724 1444.49 137.655C1497.99 155.401 1547.46 187.83 1595.88 216.052C1639.72 241.602 1683.91 266.424 1727.01 293.227Q1771.52 321.373 1814.82 351.361L1815.14 354.053C1815.82 358.065 1801.1 399.885 1798.79 409.396C1796.13 420.369 1790.6 467.576 1787.13 473.604C1786.9 474.006 1786.38 474.525 1786.1 474.838L1788.39 476.353L1788.71 476.114L1789.58 479.11L1789.71 478.403C1789.62 478.525 1789.53 478.65 1789.43 478.771C1785.89 483.254 1750.94 522.018 1748.93 523.004C1745.7 526.562 1741.14 536.286 1736.47 536.837L1736.57 537.837L1736.79 541.273L1738.85 541.994C1737.84 543.947 1735.59 545.936 1735.33 547.952C1749.3 544.201 1765 544.855 1779.39 543.33C1793.49 541.836 1807.54 538.901 1821.72 538.281L1821.02 539.613C1794.35 546.338 1766.41 551.714 1738.77 551.155C1735.29 552.74 1730.88 552.933 1727.1 553.459C1725.5 558.659 1707.99 578.631 1703.49 581.468C1713.85 577.686 1723.92 573.354 1734.58 570.417C1745 567.547 1798.16 558.015 1806.94 558.783C1801.2 561.764 1794.14 562.893 1787.92 564.597C1759.13 572.483 1720.15 572.658 1696.2 591.72C1690.34 596.388 1682.77 605.711 1678.36 611.95L1677.25 614.292L1675.33 614.514L1675.84 613.247C1673.08 614.385 1670.53 615.665 1667.94 617.146C1667.26 620.243 1665.14 623.265 1662.45 624.967C1661.61 625.501 1660.73 625.955 1659.85 626.42C1659.81 626.926 1659.88 628.354 1659.68 628.743C1657.33 633.379 1564.54 744.845 1562.08 746.924C1561.42 747.484 1560.84 747.74 1560.05 748.088C1555.39 756.368 1538.62 788.372 1540.8 797.066C1540.88 797.388 1540.99 797.704 1541.09 798.023L1542.63 798.253L1543.76 797.167C1547.33 798.197 1550.58 798.769 1553.43 801.304L1553.07 801.656C1554.14 802.377 1556.57 803.598 1557.08 804.694C1562.41 806.761 1569.06 811.951 1571.43 817.283C1571.82 818.16 1571.83 818.906 1571.81 819.846C1573.63 821.81 1575.67 823.725 1575.72 826.605C1575.73 827.484 1575.72 827.39 1575.55 828.106C1578.93 832.229 1579.37 841.233 1578.82 846.341C1577.83 855.707 1571.89 864.735 1564.62 870.493Q1563.76 871.183 1562.87 871.829Q1561.97 872.476 1561.05 873.076Q1560.12 873.677 1559.17 874.23Q1558.21 874.783 1557.23 875.288Q1556.25 875.792 1555.25 876.247Q1554.24 876.702 1553.22 877.105Q1552.19 877.509 1551.14 877.86Q1550.1 878.212 1549.04 878.51Q1547.98 878.809 1546.9 879.054Q1545.82 879.299 1544.74 879.489Q1543.65 879.68 1542.56 879.815Q1541.46 879.951 1540.36 880.032Q1539.26 880.112 1538.16 880.137Q1537.06 880.163 1535.96 880.132Q1534.85 880.102 1533.75 880.016Q1532.65 879.931 1531.56 879.79Q1530.51 879.647 1529.46 879.452Q1528.42 879.257 1527.39 879.011Q1526.35 878.765 1525.34 878.468Q1524.32 878.171 1523.31 877.823Q1522.31 877.476 1521.32 877.08Q1520.34 876.683 1519.37 876.239Q1518.41 875.794 1517.47 875.302Q1516.53 874.81 1515.61 874.272Q1514.7 873.734 1513.81 873.152Q1512.92 872.569 1512.06 871.943Q1511.21 871.318 1510.38 870.65Q1509.55 869.983 1508.76 869.275Q1507.97 868.568 1507.22 867.822Q1506.46 867.076 1505.74 866.294Q1505.02 865.511 1504.35 864.694Q1503.67 863.877 1503.03 863.028C1490.62 846.745 1497.11 842.392 1492.94 828.5C1492.75 833.197 1486.31 839.909 1482.94 843.057C1475.91 849.632 1465.61 852.193 1456.17 851.744C1447.42 851.329 1440.01 848.471 1432.11 844.987L1431.77 846.44C1428.96 848.918 1419.13 849.513 1415.31 850.115C1401.28 852.323 1386.99 852.634 1372.83 853.21C1299.22 856.206 1224.45 847.863 1152.52 832.422C1129.21 827.416 1106.37 820.304 1083.39 814.143C1074.72 811.819 1035.38 801.68 1030.44 798.09C1038.51 794.465 1047.85 790.927 1054.25 784.592C1056.65 782.208 1057.64 780.535 1057.7 777.185L1053.19 774.046L1053.76 772.784L826.223 855.871C804.052 864.103 771.253 877.658 747.513 874.417C730.312 872.068 722.168 865.486 711.875 851.839C709.908 850.246 708.895 848.276 707.684 846.111C707.288 845.316 706.892 844.526 706.446 843.757C703.53 838.728 699.3 838.238 694.099 836.842C692.069 834.452 692.922 832.4 693.108 829.341C695.518 820.683 698.598 813.119 704.141 805.925Q705.263 804.473 706.48 803.099Q707.697 801.724 709.003 800.435Q710.308 799.145 711.697 797.945Q713.086 796.745 714.552 795.641Q716.018 794.536 717.554 793.532Q719.091 792.528 720.691 791.629Q722.291 790.729 723.947 789.939Q725.603 789.148 727.309 788.47C743.929 781.877 797.863 777.347 819.057 774.564Q845.895 771.849 872.555 767.745C879.946 767.914 888.432 766.017 895.888 765.13C912.402 763.166 929.006 761.462 945.462 759.085C940.369 758.178 934.588 758.677 929.376 758.361L927.759 756.395C953.022 752.212 979.374 750.697 1004.9 748.569C1015.17 747.714 1028.86 748.268 1038.46 745.062C1018.97 740.182 993.775 746.551 973.67 747.095C970.795 745.357 967.763 745.417 964.858 743.362C960.792 743.734 956.684 743.999 952.635 744.517C936.774 744.886 919.298 737.509 904.013 733.302Q880.657 727.032 857.032 721.864Q833.407 716.696 809.566 712.642Q785.725 708.587 761.72 705.656Q737.715 702.724 713.599 700.922Q691.614 699.393 669.587 698.694C660.365 698.491 650.842 699.206 641.686 698.137L640.191 696.24C633.569 717.823 625.538 758.556 604.948 769.629C594.918 775.023 582.696 777.155 571.617 779.414C518.418 790.264 447.383 792.13 395.194 775.737C381.452 771.421 372.675 763.921 366.085 751.168Q363.808 746.748 362.023 742.107C329.259 745.687 272.306 735.007 239.429 727.409C194.646 717.06 152.9 697.363 127.999 657.162C94.5457 603.154 100.408 533.366 114.249 474.072C138.407 370.574 192.327 310.647 281.058 255.647C334.35 222.613 385.344 202.957 446.564 189.817C538.695 170.043 632.787 173.13 724.935 191.351C765.042 199.282 804.436 209.902 844.132 219.507C869.45 225.634 895.093 230.278 920.436 236.249C921.813 229.384 924 222.525 925.816 215.755L929.628 203.393C939.263 214.393 946.55 229.961 950.309 244.03C960.108 245.353 970.095 246.178 979.801 248.031L981.383 260.309L982.82 256.913C985.575 256.229 988.83 257.059 991.199 258.64C991.517 258.852 991.816 259.157 992.09 259.411C1000.42 256.584 1007.84 250.171 1014.39 244.507Z"/>
	<path fill="#506058" d="M981.383 260.309L982.82 256.913C985.575 256.229 988.83 257.059 991.199 258.64C991.517 258.852 991.816 259.157 992.09 259.411C978.551 265.022 969.754 287.156 961.871 299.235L958.195 294.545C962.649 290.684 975.562 267.477 981.383 260.309Z"/>
	<path fill="#485840" d="M1015.35 433.766C1017.22 435.905 1017.1 437.871 1017.22 440.536C1017.25 441.159 1017.23 440.911 1017.36 441.591C1015.48 447.234 1013.07 453.079 1012.26 458.984L1013.06 459.696C1015.53 461.788 1016 462.244 1019.37 462.536L1019.43 468.169C1016.79 470.592 1014.17 473.27 1011.14 475.196L1009.93 476.969C1008.62 476.971 1007.5 477.001 1006.24 476.541L1005.11 472.321C1005.85 469.64 1006.12 467.797 1005.85 465.004C1005.6 455.249 1011.41 442.558 1015.35 433.766Z"/>
	<path fill="#485840" d="M1765.14 380.364C1765.96 381.56 1766.49 382.747 1766.5 384.212C1766.59 394.71 1764.3 405.989 1763.47 416.514C1762.25 432.016 1762.75 449.336 1759.8 464.505C1759.55 465.779 1759.19 466.736 1758.59 467.879L1757.75 468.319C1757.41 463.911 1757.75 461.128 1754.53 457.919C1758.29 447.959 1758.29 421.108 1760.38 407.991C1761.44 401.263 1766.33 385.838 1765.14 380.364Z"/>
	<path fill="#5B6B59" d="M868.11 300.158C885.212 322.533 898.52 345.883 905.192 373.448L902.338 370.55C901.633 370.92 900.951 371.157 900.444 371.786C897.899 365.234 896.236 358.319 893.626 351.729C887.895 337.263 879.77 324.142 871.197 311.23C868.566 326.195 867.464 342.162 866.731 357.352C864.996 355.499 864.042 352.269 862.875 349.975C863.462 333.34 865.866 316.639 868.11 300.158Z"/>
	<path fill="#5B6B59" d="M1431.79 237.077C1434.74 238.929 1435.83 241.03 1436.6 244.365C1441.53 265.856 1414.53 317.971 1402.32 336.55C1401.38 337.972 1400.22 338.965 1398.83 339.925C1399.31 345.218 1387.54 360.777 1383.81 364.917C1383 365.806 1382.02 366.436 1380.96 366.992C1381.62 365.727 1381.74 364.952 1381.83 363.567L1377.85 362.953C1383.63 357.482 1392.48 345.282 1394.68 337.681C1401.5 331.692 1415.89 300.212 1420.19 290.267C1423.75 282.021 1434.99 257.302 1431.93 249.572L1428.9 250.146C1429.76 247.435 1431.86 246.162 1432.98 243.775C1434.14 241.296 1432.75 239.351 1431.79 237.077Z"/>
	<path fill="#5B6B59" d="M1010.94 287.265C1016.7 283.26 1024.23 280.82 1028.9 275.63C1031.71 288.144 1009.17 327.008 1002.29 337.888C989.607 357.959 973.255 373.602 952.037 384.417C944.223 388.4 936.031 391.648 928.312 395.806C929.055 392.768 929.609 390.527 932.113 388.585C933.358 388.269 934.492 387.86 935.679 387.368C984.658 367.062 1004.05 331.884 1023.56 284.981L1014.1 290.245L1010.94 287.265Z"/>
	<path fill="#506058" d="M1377.85 362.953L1381.83 363.567C1381.74 364.952 1381.62 365.727 1380.96 366.992C1380.78 372.998 1357.74 395.677 1352.44 400.646Q1349.59 403.304 1346.67 405.89Q1343.75 408.476 1340.77 410.988Q1337.79 413.5 1334.75 415.937Q1331.7 418.373 1328.6 420.733Q1325.5 423.093 1322.33 425.375Q1319.17 427.656 1315.96 429.858Q1312.74 432.06 1309.47 434.18Q1306.2 436.301 1302.87 438.339Q1299.55 440.377 1296.17 442.331Q1292.8 444.286 1289.38 446.155Q1285.96 448.024 1282.49 449.807Q1279.02 451.591 1275.51 453.287Q1272 454.983 1268.45 456.59Q1264.9 458.198 1261.31 459.716Q1257.72 461.234 1254.09 462.662Q1250.46 464.09 1246.8 465.427C1239.93 467.928 1231.89 471.29 1224.57 471.923L1226.03 469.721C1223.65 469.125 1221.32 469.068 1218.89 468.963Q1231.59 465.518 1243.95 461.002Q1250.41 458.58 1256.76 455.895Q1263.11 453.211 1269.34 450.268Q1275.58 447.325 1281.69 444.129Q1287.8 440.932 1293.77 437.488Q1299.74 434.044 1305.57 430.358Q1311.4 426.672 1317.07 422.75Q1322.74 418.828 1328.24 414.677Q1333.75 410.526 1339.08 406.152C1343.98 402.067 1351.3 396.5 1354.02 390.674C1354.15 390.388 1354.3 390.108 1354.42 389.815C1355.84 386.323 1354.01 382.342 1352.6 379.173C1354.67 378.283 1355.78 378.089 1357.08 376.119L1355.83 372.106C1356.31 372.542 1356.72 372.92 1357.07 373.471C1359.3 376.952 1359.15 381.856 1358.21 385.698C1364.98 382.433 1375.04 369.812 1377.85 362.953Z"/>
	<path fill="#FFE9B3" d="M1428.9 250.146L1431.93 249.572C1434.99 257.302 1423.75 282.021 1420.19 290.267C1415.89 300.212 1401.5 331.692 1394.68 337.681C1392.48 345.282 1383.63 357.482 1377.85 362.953C1375.04 369.812 1364.98 382.433 1358.21 385.698C1359.15 381.856 1359.3 376.952 1357.07 373.471C1356.72 372.92 1356.31 372.542 1355.83 372.106C1356.2 371.257 1356.42 370.451 1356.51 369.523C1356.93 364.898 1354.5 358.216 1351.72 354.595C1368.94 345.505 1399.96 305.628 1411.76 288.492C1414.69 284.243 1422.61 274.025 1421.67 268.844C1424.53 266.965 1426.21 263.239 1427.51 260.178C1428.84 257.052 1430.24 253.462 1428.9 250.146Z"/>
	<path fill="#506058" d="M935.027 352.199C934.595 354.399 934.178 356.116 934.741 358.347C940.395 354.79 945.518 343.954 950.191 338.596C967.714 318.505 987.676 300.444 1010.94 287.265L1014.1 290.245C989.707 305.85 966.419 324.975 948.369 347.793C942.501 355.211 937.974 364.029 932.01 371.18C930.594 374.63 928.48 378.535 927.715 382.155L924.358 379.892C924.982 375.966 925.897 372.12 926.806 368.254C923.111 371.79 917.909 395.703 916.016 402.605C907.471 433.751 896.726 462.49 882.483 491.481L880.275 489.26Q886.755 475.471 892.842 461.504C890.081 451.149 883.955 441.622 878.971 432.21C865.278 406.346 858.678 379.368 862.875 349.975C864.042 352.269 864.996 355.499 866.731 357.352C866.478 383.638 869.499 404.396 881.89 427.926C886.958 437.552 892.505 446.998 896.789 457.007C895.235 444.012 883.702 383.595 885.996 376.507L887.737 376.331C891.212 382.71 897.041 433.264 898.838 445.023C902.892 433.948 905.972 425.095 906.058 413.233C906.639 414.306 906.691 414.067 907.788 414.404C909.425 409.06 908.738 402.401 909.024 396.805Q909.771 401.598 910.605 406.376C913.03 403.961 928.904 347.931 931.216 340.63C934.672 345.14 935.146 346.514 935.027 352.199Z"/>
	<path fill="#ADB87F" d="M1023.56 284.981C1004.05 331.884 984.658 367.062 935.679 387.368C934.492 387.86 933.358 388.269 932.113 388.585C941.679 373.32 955.577 360.231 963.817 344.179C953.316 351.951 944.281 364.453 936.899 375.264C933.866 379.704 931.144 385.612 926.935 388.963L926.343 388.228L927.715 382.155C928.48 378.535 930.594 374.63 932.01 371.18C937.974 364.029 942.501 355.211 948.369 347.793C966.419 324.975 989.707 305.85 1014.1 290.245L1023.56 284.981Z"/>
	<path fill="#ADB87F" d="M871.197 311.23C879.77 324.142 887.895 337.263 893.626 351.729C896.236 358.319 897.899 365.234 900.444 371.786C900.951 371.157 901.633 370.92 902.338 370.55L905.192 373.448C906.789 381.017 908.986 389.052 909.024 396.805C908.738 402.401 909.425 409.06 907.788 414.404C906.691 414.067 906.639 414.306 906.058 413.233C905.972 425.095 902.892 433.948 898.838 445.023C897.041 433.264 891.212 382.71 887.737 376.331L885.996 376.507C883.702 383.595 895.235 444.012 896.789 457.007C892.505 446.998 886.958 437.552 881.89 427.926C869.499 404.396 866.478 383.638 866.731 357.352C867.464 342.162 868.566 326.195 871.197 311.23Z"/>
	<path fill="#506058" d="M900.444 371.786C900.951 371.157 901.633 370.92 902.338 370.55L905.192 373.448C906.789 381.017 908.986 389.052 909.024 396.805C908.738 402.401 909.425 409.06 907.788 414.404C906.691 414.067 906.639 414.306 906.058 413.233C906.392 399.186 903.519 385.407 900.444 371.786Z"/>
	<path fill="#5B6B59" d="M1048.81 460.898C1069.81 450.743 1090.83 440.51 1112.36 431.527C1128.02 424.997 1144.76 419.882 1159.86 412.184C1159.9 412.331 1159.94 412.478 1159.97 412.627C1160.35 414.197 1160.32 415.092 1159.96 416.661L1161.54 417.033C1157.57 421.208 1108.13 439.415 1097.66 444.146C1087.41 448.776 1060.38 463.348 1051.28 465.051C1047.28 470.054 1022 482.417 1014.63 487.221Q1036.81 482.843 1058.92 478.116L1059.75 480.319C1062.23 480.695 1065.35 480.435 1067.62 481.262C1054.65 486.499 1037.23 488.174 1023.37 490.323C1057.37 493.331 1093.08 489.591 1126.99 486.198C1158.2 482.641 1188.56 477.154 1218.89 468.963C1221.32 469.068 1223.65 469.125 1226.03 469.721L1224.57 471.923C1215.94 478.262 1146 490.419 1132.63 490.093C1121.29 495.623 1032.05 497.454 1016.93 494.355C1011.39 501.484 1005.82 509.932 998.015 514.706C993.253 518.861 984.665 522.279 978.33 521.984Q977.765 521.958 977.202 521.904Q976.639 521.849 976.08 521.766Q975.521 521.683 974.966 521.572Q974.412 521.461 973.864 521.322Q973.316 521.183 972.775 521.016Q972.235 520.849 971.704 520.655Q971.173 520.461 970.652 520.241Q970.131 520.02 969.623 519.774Q969.114 519.527 968.618 519.255Q968.122 518.983 967.641 518.686Q967.16 518.389 966.694 518.068Q966.229 517.747 965.78 517.403Q965.331 517.059 964.901 516.693Q964.47 516.326 964.059 515.938Q963.647 515.551 963.256 515.142Q962.864 514.734 962.494 514.307Q962.144 513.897 961.815 513.469Q961.486 513.042 961.179 512.598Q960.872 512.155 960.588 511.696Q960.304 511.237 960.044 510.765Q959.783 510.292 959.547 509.807Q959.311 509.322 959.1 508.826Q958.889 508.329 958.704 507.823Q958.518 507.316 958.359 506.801Q958.199 506.286 958.066 505.763Q957.932 505.241 957.826 504.712Q957.719 504.183 957.64 503.649Q957.56 503.116 957.508 502.579Q957.456 502.042 957.431 501.503Q957.406 500.964 957.408 500.425Q957.41 499.886 957.44 499.347Q957.47 498.808 957.527 498.272C959.384 480.216 978.648 471.561 994.157 468.08C998.077 467.2 1002.75 467.537 1005.85 465.004C1006.12 467.797 1005.85 469.64 1005.11 472.321L1006.24 476.541C1007.5 477.001 1008.62 476.971 1009.93 476.969L1011.14 475.196C1011.83 477.438 1011.98 479.56 1013.89 480.986C1025.54 474.358 1037.41 467.939 1048.81 460.898Z"/>
	<path fill="#D7DACE" d="M996.093 511.495C992.267 513.357 988.412 515.44 984.218 516.311C978.926 517.411 972.842 517.165 968.273 514.007C965.061 511.786 962.997 508.384 962.31 504.554C961.309 498.976 962.965 493.435 966.13 488.829C972.879 479.008 983.778 474.149 995.122 471.955C998.364 471.327 1002.31 470.417 1005.11 472.321L1006.24 476.541C1008.06 482.134 1010.67 486.913 1014.19 491.613C1008.63 498.62 1003.23 505.985 996.093 511.495Z"/>
	<path fill="#ADB87F" d="M929.628 203.393C939.263 214.393 946.55 229.961 950.309 244.03C960.108 245.353 970.095 246.178 979.801 248.031L981.383 260.309C975.562 267.477 962.649 290.684 958.195 294.545L961.871 299.235C952.643 315.847 938.991 333.633 935.027 352.199C935.146 346.514 934.672 345.14 931.216 340.63C931.532 336.715 922.248 320.998 920.278 315.891C917.558 308.841 916.249 302.037 915.259 294.563C913.363 274.847 916.095 255.437 920.436 236.249C921.813 229.384 924 222.525 925.816 215.755L929.628 203.393Z"/>
	<path fill="#506058" d="M925.816 215.755C926.221 218.539 926.296 221.787 927.925 224.143C922.743 247.706 917.385 269.939 919.45 294.348L918.66 296.434C916.623 296.144 916.614 295.97 915.259 294.563C913.363 274.847 916.095 255.437 920.436 236.249C921.813 229.384 924 222.525 925.816 215.755Z"/>
	<path fill="#5B6B59" d="M929.628 203.393C939.263 214.393 946.55 229.961 950.309 244.03C960.108 245.353 970.095 246.178 979.801 248.031L981.383 260.309C975.562 267.477 962.649 290.684 958.195 294.545L961.871 299.235C952.643 315.847 938.991 333.633 935.027 352.199C935.146 346.514 934.672 345.14 931.216 340.63C931.532 336.715 922.248 320.998 920.278 315.891C917.558 308.841 916.249 302.037 915.259 294.563C916.614 295.97 916.623 296.144 918.66 296.434L919.45 294.348C921.764 307.326 925.459 319.036 931.857 330.589C932.136 326.368 932.128 321.88 932.865 317.723C932.918 301.777 932.93 282.823 935.832 267.181L936.833 266.3C940.966 273.74 937.395 310.292 935.917 320.455L936.2 335.447C941.606 325.558 947.584 315.615 950.616 304.686C959.021 274.392 945.717 238.49 931.046 212.302L927.925 224.143C926.296 221.787 926.221 218.539 925.816 215.755L929.628 203.393Z"/>
	<path fill="#FFE9B3" d="M950.309 244.03C960.108 245.353 970.095 246.178 979.801 248.031L981.383 260.309C975.562 267.477 962.649 290.684 958.195 294.545C955.911 291.844 957.278 281.517 956.935 277.272C956.018 265.906 953.439 254.964 950.309 244.03Z"/>
	<path fill="#5B6B59" d="M1799.47 363.354C1802.11 369.511 1795.02 385.243 1793.03 391.6C1787.82 408.18 1783.28 424.869 1780.48 442.047C1778.64 453.39 1779.59 474.906 1775.53 484.394C1774.99 485.637 1774.3 486.824 1773.59 487.971C1778.58 485.011 1782.75 481.676 1785.9 476.743L1786.1 474.838L1788.39 476.353L1788.71 476.114L1789.58 479.11L1789.71 478.403C1789.62 478.525 1789.53 478.65 1789.43 478.771C1785.89 483.254 1750.94 522.018 1748.93 523.004C1745.7 526.562 1741.14 536.286 1736.47 536.837L1736.57 537.837L1736.79 541.273L1738.85 541.994C1737.84 543.947 1735.59 545.936 1735.33 547.952C1749.3 544.201 1765 544.855 1779.39 543.33C1793.49 541.836 1807.54 538.901 1821.72 538.281L1821.02 539.613C1794.35 546.338 1766.41 551.714 1738.77 551.155C1735.29 552.74 1730.88 552.933 1727.1 553.459C1725.5 558.659 1707.99 578.631 1703.49 581.468C1713.85 577.686 1723.92 573.354 1734.58 570.417C1745 567.547 1798.16 558.015 1806.94 558.783C1801.2 561.764 1794.14 562.893 1787.92 564.597C1759.13 572.483 1720.15 572.658 1696.2 591.72C1690.34 596.388 1682.77 605.711 1678.36 611.95L1677.25 614.292L1675.33 614.514L1675.84 613.247C1673.08 614.385 1670.53 615.665 1667.94 617.146C1667.26 620.243 1665.14 623.265 1662.45 624.967C1661.61 625.501 1660.73 625.955 1659.85 626.42C1650.41 634.123 1642.29 646.1 1634.47 655.535L1592.74 705.885C1580.68 720.654 1568.75 736.836 1554.46 749.528C1546.51 756.592 1537.76 762.109 1528.57 767.383C1525.41 769.197 1518.7 774.014 1515.17 773.988C1517.12 770.795 1522.25 770.225 1524.62 766.839C1529.54 765.619 1541.22 758.546 1543.9 754.169C1550.96 751.587 1558.82 742.489 1563.89 736.966C1579.66 719.791 1593.69 700.318 1608.51 682.275C1624.76 662.487 1642.4 643.264 1657.98 622.998C1672.09 604.649 1672.76 564.515 1676.16 542.057C1677.48 533.387 1681.7 522.607 1680.49 514.036C1680.75 514.525 1681 515.014 1681.23 515.517L1681.51 516.157C1681.75 516.708 1681.81 516.764 1681.99 517.351C1683.31 521.524 1681.24 531.069 1680.85 535.744C1678.83 559.33 1679.43 588.362 1668.82 609.999C1673.38 608.347 1680.01 599.762 1683.04 595.678C1687.45 589.741 1694.72 578.641 1693.64 571.136C1700.83 557.958 1697.38 533.331 1697.75 518.592C1698.02 508.409 1698.64 497.999 1700.14 487.927C1701.39 479.557 1709.54 462.348 1708.82 456.041C1711.23 464.758 1704.98 482.349 1703.71 491.88C1701.05 511.988 1707.49 556.988 1698.92 572.602C1698.69 573.023 1698.3 573.485 1698.02 573.847L1700.39 573.926C1704.21 570.677 1712.81 563.316 1713.71 558.383C1718.41 548.241 1716.87 481.406 1718.34 463.592C1718.92 456.574 1723.52 435.418 1722.35 430.55C1724.17 436.227 1723.17 479.346 1722.06 487.065C1724.63 498.258 1724.1 541.717 1718.78 550.951C1722.64 548.796 1728.97 544.981 1731.1 540.976C1733.96 533.189 1735.41 513.066 1732.9 505.094C1735.21 499.515 1736.8 468.988 1734.88 463.148C1736.65 457.642 1742.58 412.354 1741.24 407.439C1742.24 409.456 1743.26 411.538 1743.34 413.826C1743.74 424.666 1741.92 436.101 1741.39 447.004C1740.63 462.804 1740.75 506.84 1737.45 519.448C1737.18 520.467 1736.54 521.326 1735.85 522.092C1737.35 525.582 1737.84 528.383 1736.85 532.14C1737.79 531.534 1738.42 531.036 1739.09 530.125C1741.32 527.06 1743.9 524.181 1745.9 520.954C1752.17 510.802 1757.35 469.54 1754.53 457.919C1757.75 461.128 1757.41 463.911 1757.75 468.319L1758.59 467.879C1761.26 475.925 1758.92 498.613 1754.99 506.491C1754.49 507.494 1753.91 508.438 1753.3 509.378C1757.4 507.062 1768.19 498.797 1769.56 494.368C1769.6 494.224 1769.61 494.07 1769.63 493.921C1774.1 484.239 1773.51 464.771 1774.65 453.788C1775.76 443.01 1777.29 432.023 1779.8 421.486C1782.98 408.099 1799.12 370.645 1799.47 363.354Z"/>
	<path fill="#5B6B59" d="M882.483 491.481C896.726 462.49 907.471 433.751 916.016 402.605C917.909 395.703 923.111 371.79 926.806 368.254C925.897 372.12 924.982 375.966 924.358 379.892Q915.321 414.921 904.502 449.441C900.889 461.319 897.703 473.576 893.061 485.099C883.151 509.698 869.375 533.653 856.243 556.694C847.024 572.869 835.144 587.611 826.084 603.74C826.963 605.148 827.486 606.142 829.082 606.835L834.134 606.921C832.925 608.509 832.69 608.913 830.784 609.713L831.301 611.671C828.299 612.56 825.379 613.561 822.992 615.657C816.817 621.079 811.99 629.418 807.193 636.06C799.528 646.67 791.202 656.865 783.776 667.636C779.686 673.568 776.413 680.051 772.322 685.966C770.516 688.577 768.876 690.105 765.589 690.655C762.145 691.232 758.451 690.006 755.732 687.888C753.153 685.88 751.152 682.869 750.975 679.539C750.857 677.295 751.652 675.206 752.995 673.441C758.542 666.15 767.843 659.778 774.48 653.238C784.165 643.694 792.796 632.996 801.555 622.611C805.241 599.263 808.046 576.329 809.286 552.727C809.294 543.897 799.955 534.541 796.738 526.158C782.833 489.925 794.07 447.439 809.289 413.442C812.475 418.515 815.108 423.516 817.491 429.013C825.921 445.2 832.095 464.268 833.716 482.505C834.728 497.04 832.891 525.05 823.316 536.833C823.183 536.996 823.016 537.127 822.865 537.273C820.43 541.915 817.693 545.527 814.177 549.372C813.036 565.697 811.821 581.925 809.506 598.133C808.524 604.14 807.671 610.211 806.421 616.166C810.226 610.911 814.174 605.714 817.643 600.229C822.841 593.769 827.294 585.963 831.743 578.939C850.051 550.034 865.071 519.863 880.275 489.26L882.483 491.481Z"/>
	<path fill="#D7DACE" d="M882.483 491.481C896.726 462.49 907.471 433.751 916.016 402.605C917.909 395.703 923.111 371.79 926.806 368.254C925.897 372.12 924.982 375.966 924.358 379.892Q915.321 414.921 904.502 449.441C900.889 461.319 897.703 473.576 893.061 485.099C883.151 509.698 869.375 533.653 856.243 556.694C847.024 572.869 835.144 587.611 826.084 603.74C820.945 608.296 816.071 618.124 812.02 623.936C802.231 637.985 791.67 651.457 781.71 665.376C777.5 671.259 774.102 677.841 769.792 683.599C768.801 684.924 767.704 686.027 766.144 686.668C763.943 687.572 760.948 687.467 758.855 686.318C757.171 685.393 755.488 683.368 754.921 681.527C752.662 674.193 762.455 668.255 767.239 664.149C817.604 620.922 853.49 550.009 882.483 491.481Z"/>
	<path fill="#ADB87F" d="M809.499 422.861C811.265 425.798 812.655 428.844 814.057 431.966L817.491 429.013C825.921 445.2 832.095 464.268 833.716 482.505L831.109 484.367C830.844 486.314 830.737 488.309 829.833 490.079C829.569 506.388 826.813 520.128 819.677 534.892C818.438 537.11 817.668 539.615 815.346 540.722C814.282 540.33 813.4 539.695 812.464 539.07L811.565 534.037L810.909 543.056Q807.918 537.947 805.095 532.744C786.178 497.341 798.583 458.573 809.499 422.861Z"/>
	<path fill="#506058" d="M811.565 534.037C811.876 527.491 810.267 494.239 812.617 490.501L814.393 490.512C817.732 495.732 815.717 532.488 815.346 540.722C814.282 540.33 813.4 539.695 812.464 539.07L811.565 534.037Z"/>
	<path fill="#506058" d="M817.491 429.013C825.921 445.2 832.095 464.268 833.716 482.505L831.109 484.367C830.844 486.314 830.737 488.309 829.833 490.079C826.917 469.006 821.851 451.694 814.057 431.966L817.491 429.013Z"/>
	<path fill="#FFE9B3" d="M1347.26 358.504C1351.23 362.684 1353.16 371.145 1353.05 376.882C1353.03 377.747 1352.85 378.352 1352.6 379.173C1354.01 382.342 1355.84 386.323 1354.42 389.815C1354.3 390.108 1354.15 390.388 1354.02 390.674C1351.3 396.5 1343.98 402.067 1339.08 406.152Q1333.75 410.526 1328.24 414.677Q1322.74 418.828 1317.07 422.75Q1311.4 426.672 1305.57 430.358Q1299.74 434.044 1293.77 437.488Q1287.8 440.933 1281.69 444.129Q1275.58 447.325 1269.34 450.268Q1263.11 453.211 1256.76 455.895Q1250.41 458.58 1243.95 461.002Q1231.59 465.518 1218.89 468.963C1188.56 477.154 1158.2 482.641 1126.99 486.198C1093.08 489.591 1057.37 493.331 1023.37 490.323C1037.23 488.174 1054.65 486.499 1067.62 481.262C1079.52 480.455 1092.37 476.393 1104.06 473.702C1155.18 461.945 1203.9 447.387 1250.86 423.765C1262.58 417.869 1320.24 386.128 1322.92 378.03C1327.59 376.271 1344.81 363.757 1346.91 359.323C1347.03 359.054 1347.14 358.777 1347.26 358.504Z"/>
	<path fill="#506058" d="M927.715 382.155L926.343 388.228L926.935 388.963C931.144 385.612 933.866 379.704 936.899 375.264C944.281 364.453 953.316 351.951 963.817 344.179C955.577 360.231 941.679 373.32 932.113 388.585C929.609 390.527 929.055 392.768 928.312 395.806C916.682 408.132 909.336 444.941 903.946 462.427C931.92 417.089 965.571 391.314 1013.18 368.825C994.742 407.954 971.301 460.429 927.464 475.947C918.066 479.274 907.796 481.434 898.827 485.804C890.543 497.14 884.614 510.479 878.159 522.929C868.601 541.361 858.995 559.61 848.124 577.315C874.968 549.593 904.34 535.513 943.287 533.689C928.27 566.178 906.593 589.655 872.346 602.195C860.077 606.687 844.4 610.596 831.301 611.671L830.784 609.713C832.69 608.913 832.925 608.509 834.134 606.921L829.082 606.835C827.486 606.142 826.963 605.148 826.084 603.74C835.144 587.611 847.024 572.869 856.243 556.694C869.375 533.653 883.151 509.698 893.061 485.099C897.703 473.576 900.889 461.319 904.502 449.441Q915.321 414.921 924.358 379.892L927.715 382.155Z"/>
	<path fill="#ADB87F" d="M829.082 606.835C855.955 570.73 884.14 545.98 930.109 539.151Q933.28 538.684 936.473 538.404C921.418 567.587 897.396 589.634 865.78 599.725C855.752 602.926 843.615 603.093 834.134 606.921L829.082 606.835Z"/>
	<path fill="#ADB87F" d="M1000.88 379.901L1001.7 380.708C1001.62 384.254 999.131 388.253 997.518 391.406C984 417.826 964.917 451.562 938.403 466.344C927.179 472.602 914.606 476.025 902.432 479.947L901.708 479.252C901.764 478.691 901.833 478.095 901.983 477.551C903.405 472.367 907.502 466.331 910.1 461.574C930.457 424.281 964.366 399.916 1000.88 379.901Z"/>
	<path fill="#5B6B59" d="M1200.59 725.802C1210.97 724.428 1222.02 719.983 1232.01 716.892L1291.59 698.244Q1396.92 664.119 1502.95 632.269C1514.23 628.958 1542.03 617.999 1552.3 618.084C1538.89 626.223 1486.69 640.496 1467.33 646.787Q1331.76 691.432 1195.16 732.792C1151.9 745.988 1107.39 756.778 1064.6 771.379C1060.86 772.658 1060.1 774.149 1057.7 777.185L1053.19 774.046L1053.76 772.784L826.223 855.871L824.764 851.154C885.777 827.953 948.027 807.929 1009.17 784.916C1021.11 780.184 1047.91 772.544 1056.02 764.13C1048.12 765.358 1040.48 768.032 1032.61 769.531L1032.39 767.871C1029.53 766.043 1025.19 766.258 1021.84 766.039C1028.17 764.115 1050.67 761.639 1054.58 757.74C1039.36 757.962 1024.42 760.758 1009.28 761.945L1008.55 759.886C1005.5 758.239 1001.11 758.759 997.667 758.765C1008.39 757.027 1045.07 755.712 1051.59 751.55C1029.02 747.237 972.119 758.072 945.462 759.085C940.369 758.178 934.588 758.677 929.376 758.361L927.759 756.395C953.022 752.212 979.374 750.697 1004.9 748.569C1015.17 747.714 1028.86 748.268 1038.46 745.062C1018.97 740.182 993.775 746.551 973.67 747.095C970.795 745.357 967.763 745.417 964.858 743.362C986.845 740.243 1009.95 738.866 1032.17 739.176C1036.64 733.251 1037.22 723.996 1040.87 717.215C1047.85 704.199 1061.46 692.747 1071.52 681.963C1071.64 682.086 1071.75 682.207 1071.86 682.334C1075.19 686.184 1075.9 691.66 1079.2 695.593C1090.01 708.494 1110.99 711.87 1126.79 713.312C1135.85 714.139 1144.95 714.399 1154.04 714.641C1156.74 714.158 1158.13 713.688 1160.79 714.607L1161.61 716.025L1163.7 715.702C1170.54 715.938 1189.63 715.113 1194.71 719.805L1193.15 721.992C1190.5 722.822 1185.53 723.745 1184.27 726.334C1183.58 727.749 1183.1 729.307 1182.61 730.8C1187.86 730.117 1196.14 728.746 1200.59 725.802Z"/>
	<path fill="#FFE9B3" d="M1163.7 715.702C1170.54 715.938 1189.63 715.113 1194.71 719.805L1193.15 721.992C1190.5 722.822 1185.53 723.745 1184.27 726.334C1183.58 727.749 1183.1 729.307 1182.61 730.8C1178.33 734.401 1071.89 764.545 1060.69 767.372C1060.77 766.752 1060.84 766.365 1060.85 765.765C1060.94 760.704 1059.26 754.434 1055.69 750.738Q1090.04 740.123 1124.23 728.993C1136.49 725.032 1150.04 721.651 1161.61 716.025L1163.7 715.702Z"/>
	<path fill="#FFC176" d="M1032.17 739.176C1036.64 733.251 1037.22 723.996 1040.87 717.215C1047.85 704.199 1061.46 692.747 1071.52 681.963C1071.64 682.086 1071.75 682.207 1071.86 682.334C1075.19 686.184 1075.9 691.66 1079.2 695.593C1090.01 708.494 1110.99 711.87 1126.79 713.312C1135.85 714.139 1144.95 714.399 1154.04 714.641L1155.55 715.482C1141.9 722.158 1124.63 724.832 1109.99 729.139C1090.65 734.833 1071.49 741.774 1051.98 746.801C1047.5 741.151 1038.94 739.969 1032.17 739.176Z"/>
	<path fill="#FFE9B3" d="M1331.97 318.753C1337.66 323.795 1345.77 344.027 1346.13 351.8C1346.15 352.356 1346.08 352.826 1346.02 353.387C1342.5 359.17 1328.03 369.132 1321.82 372.94L1322.92 378.03C1320.24 386.128 1262.58 417.869 1250.86 423.765C1203.9 447.387 1155.18 461.945 1104.06 473.702C1092.37 476.393 1079.52 480.455 1067.62 481.262C1065.35 480.435 1062.23 480.695 1059.75 480.319L1058.92 478.116Q1036.81 482.843 1014.63 487.221C1022 482.417 1047.28 470.054 1051.28 465.051C1060.38 463.348 1087.41 448.776 1097.66 444.146C1108.13 439.415 1157.57 421.208 1161.54 417.033L1159.96 416.661C1160.32 415.092 1160.35 414.197 1159.97 412.627C1159.94 412.478 1159.9 412.331 1159.86 412.184C1183.37 404.508 1213.53 390.621 1234.72 377.858C1257.46 365.246 1301.81 339.696 1319.83 321.971C1320.79 323.114 1321.72 324.455 1322.97 325.296C1326.02 324.008 1330.1 322.456 1331.74 319.348C1331.84 319.16 1331.89 318.951 1331.97 318.753Z"/>
	<path fill="#506058" d="M1234.72 377.858C1257.46 365.246 1301.81 339.696 1319.83 321.971C1320.79 323.114 1321.72 324.455 1322.97 325.296C1319.57 333 1253.57 375.612 1241.33 380.386C1240.55 380.692 1239.71 380.885 1238.89 381.048C1235.39 387.102 1174.25 413.882 1164.86 416.304Q1163.21 416.724 1161.54 417.033L1159.96 416.661C1160.32 415.092 1160.35 414.197 1159.97 412.627C1159.94 412.478 1159.9 412.331 1159.86 412.184C1183.37 404.508 1213.53 390.621 1234.72 377.858Z"/>
	<path fill="#506058" d="M1058.92 478.116C1140.82 459.636 1206.85 445.172 1280.1 401.397C1294.22 392.963 1309.7 384.104 1321.82 372.94L1322.92 378.03C1320.24 386.128 1262.58 417.869 1250.86 423.765C1203.9 447.387 1155.18 461.945 1104.06 473.702C1092.37 476.393 1079.52 480.455 1067.62 481.262C1065.35 480.435 1062.23 480.695 1059.75 480.319L1058.92 478.116Z"/>
	<path fill="#485840" d="M1491.77 761.426C1480.75 754.673 1471.29 747.225 1465.86 735.104C1461.7 725.825 1461.36 715.899 1465.13 706.429C1469.12 696.378 1480.02 681.304 1490.11 677.053C1502.82 671.696 1507.96 681.151 1518.43 685.248C1519.41 683.894 1519.33 682.727 1519.38 681.127L1519.39 680.445L1520.9 680.976C1521.05 682.699 1521.25 684.321 1521.63 686.01C1524.71 680.988 1529.91 674.253 1530.77 668.415C1530.9 669.285 1530.97 670.17 1531.11 671.035C1531.91 675.858 1528.12 682.336 1526.56 687.056C1528.57 689.851 1535.78 692.683 1538.92 694.604L1538.79 695.578L1533.21 696.001C1535.4 698.345 1539.22 697.807 1541.92 699.745C1546.88 703.304 1549.76 709.692 1550.83 715.535C1552.29 723.448 1551.32 732.17 1546.64 738.863C1545.08 746.323 1537.13 752.763 1531.01 756.78C1528.48 758.442 1525.58 759.913 1522.72 760.933C1515.4 765.021 1506.02 764.802 1497.96 763.721C1491.69 768.866 1484.51 773.898 1477.21 777.452C1481.35 778.801 1491.69 780.976 1494.17 784.149L1492.64 785.469C1493.26 785.598 1493.55 785.695 1494.15 785.703C1506.25 785.849 1549.43 756.22 1558.95 747.826L1560.05 748.088C1555.39 756.368 1538.62 788.372 1540.8 797.066C1540.88 797.388 1540.99 797.704 1541.09 798.023L1542.63 798.253L1543.76 797.167C1547.33 798.197 1550.58 798.769 1553.43 801.304L1553.07 801.656C1554.14 802.377 1556.57 803.598 1557.08 804.694C1562.41 806.761 1569.06 811.951 1571.43 817.283C1571.82 818.16 1571.83 818.906 1571.81 819.846C1573.63 821.81 1575.67 823.725 1575.72 826.605C1575.73 827.484 1575.72 827.39 1575.55 828.106C1578.93 832.229 1579.37 841.233 1578.82 846.341C1577.83 855.707 1571.89 864.735 1564.62 870.493Q1563.76 871.183 1562.87 871.829Q1561.97 872.476 1561.05 873.076Q1560.12 873.677 1559.17 874.23Q1558.21 874.783 1557.23 875.288Q1556.25 875.792 1555.25 876.247Q1554.24 876.702 1553.22 877.105Q1552.19 877.509 1551.14 877.86Q1550.1 878.212 1549.04 878.51Q1547.98 878.809 1546.9 879.054Q1545.82 879.299 1544.74 879.489Q1543.65 879.68 1542.56 879.815Q1541.46 879.951 1540.36 880.032Q1539.26 880.112 1538.16 880.137Q1537.06 880.163 1535.96 880.132Q1534.85 880.102 1533.75 880.016Q1532.65 879.931 1531.56 879.79Q1530.51 879.647 1529.46 879.452Q1528.42 879.257 1527.39 879.011Q1526.35 878.765 1525.34 878.468Q1524.32 878.171 1523.31 877.823Q1522.31 877.476 1521.32 877.08Q1520.34 876.683 1519.37 876.239Q1518.41 875.794 1517.47 875.302Q1516.53 874.81 1515.61 874.272Q1514.7 873.734 1513.81 873.152Q1512.92 872.569 1512.06 871.943Q1511.21 871.318 1510.38 870.65Q1509.55 869.983 1508.76 869.275Q1507.97 868.568 1507.22 867.822Q1506.46 867.076 1505.74 866.294Q1505.02 865.511 1504.35 864.694Q1503.67 863.877 1503.03 863.028C1490.62 846.745 1497.11 842.392 1492.94 828.5C1492.75 833.197 1486.31 839.909 1482.94 843.057C1475.91 849.632 1465.61 852.193 1456.17 851.744C1447.42 851.329 1440.01 848.471 1432.11 844.987C1430.44 840.638 1421.87 833.228 1418.76 828.328C1413.15 819.46 1413.28 808.035 1415.58 798.094C1418.61 785.021 1428.48 770.759 1440.14 763.817C1458.52 752.867 1458.4 769.197 1471.27 771.667C1475.78 772.531 1476.39 767.732 1479.55 766.087C1483.14 764.223 1487.13 764.354 1490.98 761.932L1491.77 761.426Z"/>
	<path fill="#FFE9B3" d="M1549.78 757.497L1551.58 758.89C1551.58 760.281 1539.65 791.853 1538.3 793.504C1537.3 791.611 1536.47 790.56 1534.7 789.342C1532.72 792.077 1535.52 795.751 1533.49 798.84C1529.96 799.56 1527.89 797.26 1524.6 796.815C1521.23 796.36 1523.58 797.593 1522.39 799.081C1520.94 800.902 1512.21 802.752 1509.63 804.112C1506.18 805.929 1502.86 809.051 1499.81 811.503L1499.11 812.597C1498.93 809.801 1499.11 807.042 1498.97 804.261C1498.7 799.05 1496.32 792.783 1492.41 789.252C1511.18 783.495 1535.44 771.085 1549.78 757.497Z"/>
	<path fill="#FFC176" d="M1514.02 870.186C1507.85 865.175 1503.6 859.359 1500.97 851.822C1497.21 841.042 1496.49 826.424 1501.64 816.088C1504.57 810.233 1509.58 805.376 1515.9 803.378C1521.52 801.598 1526.19 803.026 1531.22 805.665L1530.04 805.438L1530.89 806.438L1529.84 806.977L1528.34 805.054C1529.45 807.027 1537.76 813.793 1539.86 814.783L1540.51 810.396L1541.91 809.754L1543.71 810.999L1552.18 810.855L1551.54 810.303L1552.64 810.59C1551.05 808.871 1546.91 808.296 1544.58 807.641C1547.48 806.37 1555.07 808.412 1558.85 808.295L1553.52 805.579L1553.59 805.072L1557.08 804.694C1562.41 806.761 1569.06 811.951 1571.43 817.283C1571.82 818.16 1571.83 818.906 1571.81 819.846C1575.85 831.992 1577.65 844.424 1571.61 856.34Q1571.17 857.186 1570.69 858.009Q1570.22 858.832 1569.7 859.63Q1569.18 860.429 1568.62 861.201Q1568.06 861.973 1567.47 862.716Q1566.87 863.459 1566.24 864.172Q1565.61 864.885 1564.95 865.566Q1564.28 866.247 1563.58 866.895Q1562.89 867.542 1562.16 868.154Q1561.43 868.766 1560.67 869.341Q1559.91 869.916 1559.12 870.453Q1558.34 870.99 1557.53 871.487Q1556.71 871.985 1555.88 872.441Q1555.04 872.898 1554.19 873.313Q1553.33 873.727 1552.45 874.099Q1551.58 874.471 1550.68 874.799Q1549.79 875.127 1548.88 875.411C1537.51 879.02 1526.65 877.017 1516.33 871.483Q1515.16 870.855 1514.02 870.186Z"/>
	<path fill="#FFE9B3" d="M1513.64 814.499C1513.79 814.476 1513.95 814.449 1514.1 814.43C1514.36 814.397 1514.62 814.375 1514.88 814.342C1519.37 813.779 1522.65 814.228 1526.84 816.034C1530.79 817.738 1536.84 821.402 1538.2 825.8C1538.74 827.549 1538.61 829.118 1537.73 830.703C1536.05 833.724 1532.29 834.854 1529.21 835.779C1527.09 836.423 1524.86 836.518 1522.65 836.329C1518.4 835.964 1513.64 833.377 1510.98 830.053C1508.77 827.306 1507.95 824.082 1508.44 820.605C1508.84 817.732 1511.48 816.111 1513.64 814.499Z"/>
	<path fill="#FFC176" d="M1419.46 795.928C1421.55 793.151 1422.77 789.462 1424.53 786.414C1429.13 778.486 1438.75 765.707 1447.98 763.411C1452.58 762.268 1457.17 764.817 1460.95 767.319C1462.89 768.604 1463.48 769.511 1463.86 771.748C1461.92 772.155 1460.25 771.93 1458.98 773.522Q1462.55 774.491 1466.13 775.399C1464.3 775.561 1462.4 775.266 1461.19 776.712C1462.88 778.384 1464.36 779.786 1465.26 782.033C1467.08 786.606 1471.71 784.743 1475.23 787.244C1477.61 788.928 1479.64 792.483 1481.28 794.866C1482.21 794.358 1483.22 794.074 1483.7 793.11C1484.06 792.362 1483.87 792.629 1484.36 792.136L1481.51 786.212L1482.12 785.693C1482.3 785.826 1482.48 785.961 1482.66 786.092C1485.33 788.049 1488.2 789.233 1491.04 790.855C1494.7 793.696 1496.95 799.929 1497.47 804.413C1498.61 814.093 1492.72 825.243 1486.87 832.574C1480.26 840.855 1471.11 846.405 1460.5 847.583C1450.83 848.657 1440.76 846.377 1433.17 840.121C1426.09 834.282 1419.33 824.248 1418.58 814.901C1418.09 808.883 1420.68 801.522 1419.46 795.928Z"/>
	<path fill="#FFE9B3" d="M1444.82 781.496L1448.43 781.301C1453.33 783.943 1457.42 790.193 1459.52 795.232C1460.91 798.534 1462.51 802.744 1460.92 806.217C1460.16 807.865 1458.98 807.906 1457.36 808.545C1455.14 808.635 1452.43 808.434 1450.33 807.674C1447.25 806.557 1444.84 804.507 1443.48 801.478C1440.57 794.969 1442.33 787.77 1444.82 781.496Z"/>
	<path fill="#FFC176" d="M1497.24 678.113C1503.67 680.315 1505.28 681.965 1508.64 687.66L1504.69 687.438L1504.26 688.422C1506.15 689.764 1508.11 690.644 1509.01 692.803C1507.32 692.881 1505.67 693.082 1503.99 693.313L1503.28 694.877C1510.89 695.709 1515.02 699.865 1523.52 700.032C1525.03 700.965 1526.72 701.84 1527.93 703.152L1532.38 704.372C1533.49 702.018 1533.79 700.069 1536.18 698.892C1541.09 700.721 1544.35 703.49 1546.54 708.328C1550.09 716.168 1549.39 725.94 1546.38 733.823Q1546 734.804 1545.56 735.766Q1545.13 736.728 1544.65 737.667Q1544.18 738.607 1543.65 739.522Q1543.13 740.438 1542.57 741.327Q1542 742.216 1541.39 743.076Q1540.78 743.937 1540.13 744.767Q1539.48 745.597 1538.79 746.395Q1538.1 747.192 1537.38 747.956Q1536.65 748.719 1535.89 749.446Q1535.12 750.173 1534.33 750.863Q1533.53 751.552 1532.7 752.202Q1531.87 752.852 1531.01 753.461Q1530.15 754.07 1529.26 754.637Q1528.37 755.203 1527.46 755.726Q1526.54 756.249 1525.6 756.727Q1524.66 757.205 1523.7 757.637C1514.22 761.878 1503.44 762.505 1493.74 758.632C1484.82 755.068 1478.63 749.401 1471.84 742.843C1471.4 740.33 1469.66 737.401 1468.66 734.986C1465.16 726.489 1465.14 717.138 1468.11 708.448C1473.04 694.021 1484.05 684.674 1497.24 678.113Z"/>
	<path fill="#FFE9B3" d="M1483.71 696.84Q1485.34 695.459 1487 694.121C1489.96 691.748 1492.15 690.271 1495.96 690.68C1497.82 692.256 1498.27 693.505 1498.85 695.839C1501.23 699.049 1504.47 703.63 1504.02 707.77C1503.87 709.161 1502.63 711.061 1501.58 711.923C1499.27 713.801 1496.15 714.301 1493.28 713.772C1490.3 713.223 1487.56 711.486 1485.89 708.949C1483.37 705.12 1485.2 700.711 1483.71 696.84Z"/>
	<path fill="#506058" d="M945.462 759.085C972.119 758.072 1029.02 747.237 1051.59 751.55C1045.07 755.712 1008.39 757.027 997.667 758.765C1001.11 758.759 1005.5 758.239 1008.55 759.886L1009.28 761.945C1024.42 760.758 1039.36 757.962 1054.58 757.74C1050.67 761.639 1028.17 764.115 1021.84 766.039C1025.19 766.258 1029.53 766.043 1032.39 767.871L1032.61 769.531C1040.48 768.032 1048.12 765.358 1056.02 764.13C1047.91 772.544 1021.11 780.184 1009.17 784.916C948.027 807.929 885.777 827.953 824.764 851.154L826.223 855.871C804.052 864.103 771.253 877.658 747.513 874.417C730.312 872.068 722.168 865.486 711.875 851.839C709.908 850.246 708.895 848.276 707.684 846.111C707.288 845.316 706.892 844.526 706.446 843.757C703.53 838.728 699.3 838.238 694.099 836.842C692.069 834.452 692.922 832.4 693.108 829.341C695.518 820.683 698.598 813.119 704.141 805.925Q705.263 804.473 706.48 803.099Q707.697 801.724 709.003 800.435Q710.308 799.145 711.697 797.945Q713.086 796.745 714.552 795.641Q716.018 794.536 717.554 793.532Q719.091 792.528 720.691 791.629Q722.291 790.729 723.947 789.939Q725.603 789.148 727.309 788.47C743.929 781.877 797.863 777.347 819.057 774.564Q845.895 771.849 872.555 767.745C879.946 767.914 888.432 766.017 895.888 765.13C912.402 763.166 929.006 761.462 945.462 759.085Z"/>
	<path fill="#D7DACE" d="M783.821 825.739Q855.475 810.269 926.906 793.798C942.094 790.237 980.323 777.913 993.139 778.294C969.245 787.352 944.226 793.421 920.366 802.326C871.576 817.198 823.279 834.027 773.957 847.077C757.506 851.43 740.635 856.155 723.828 858.882C720.612 854.917 717.389 851.017 714.663 846.689C735.931 835.959 760.672 830.919 783.821 825.739Z"/>
	<path fill="#D7DACE" d="M945.462 759.085C972.119 758.072 1029.02 747.237 1051.59 751.55C1045.07 755.712 1008.39 757.027 997.667 758.765Q915.31 769.264 833.25 781.883C806.915 785.705 767.049 788.566 743.055 797.119C733.174 800.641 724.329 807.597 717.889 815.838C713.948 820.882 709.752 827.722 708.974 834.163C707.595 837.981 707.762 842.102 707.684 846.111C707.288 845.316 706.892 844.526 706.446 843.757C703.53 838.728 699.3 838.238 694.099 836.842C692.069 834.452 692.922 832.4 693.108 829.341C695.518 820.683 698.598 813.119 704.141 805.925Q705.263 804.473 706.48 803.099Q707.697 801.724 709.003 800.435Q710.308 799.145 711.697 797.945Q713.086 796.745 714.552 795.641Q716.018 794.536 717.554 793.532Q719.091 792.528 720.691 791.629Q722.291 790.729 723.947 789.939Q725.603 789.148 727.309 788.47C743.929 781.877 797.863 777.347 819.057 774.564Q845.895 771.849 872.555 767.745C879.946 767.914 888.432 766.017 895.888 765.13C912.402 763.166 929.006 761.462 945.462 759.085Z"/>
	<path fill="#D7DACE" d="M1032.61 769.531C1040.48 768.032 1048.12 765.358 1056.02 764.13C1047.91 772.544 1021.11 780.184 1009.17 784.916C948.027 807.929 885.777 827.953 824.764 851.154Q807.851 857.073 790.739 862.389C767.661 869.685 751.552 873.341 728.514 863.293C750.773 857.545 773.184 852.674 795.329 846.401C837.326 834.505 878.909 820.595 920.563 807.521L920.366 802.326C944.226 793.421 969.245 787.352 993.139 778.294L994.56 778.313L994.41 777.229L987.773 776.254L986.826 774.131C998.318 770.977 1010.07 767.942 1021.84 766.039C1025.19 766.258 1029.53 766.043 1032.39 767.871L1032.61 769.531Z"/>
	<path fill="#506058" d="M986.826 774.131C998.318 770.977 1010.07 767.942 1021.84 766.039C1025.19 766.258 1029.53 766.043 1032.39 767.871L1032.61 769.531C1026.56 773.731 1010.22 778.922 1003.04 780.023L947.571 798.48C938.678 801.433 929.156 803.887 920.563 807.521L920.366 802.326C944.226 793.421 969.245 787.352 993.139 778.294L994.56 778.313L994.41 777.229L987.773 776.254L986.826 774.131Z"/>
	<path fill="#D7DACE" d="M1009.28 761.945C1024.42 760.758 1039.36 757.962 1054.58 757.74C1050.67 761.639 1028.17 764.115 1021.84 766.039C1010.07 767.942 998.318 770.977 986.826 774.131C948.787 782.298 911.145 792.552 873.095 800.894L814.61 813.624C805.691 815.57 794.496 816.897 786.172 820.425C760.886 825.483 735.715 831.35 712.052 841.865C713.537 833.803 716.222 826.759 720.955 820.027C726.812 811.694 734.676 805.423 744.258 801.924C764.58 794.503 793.613 792.822 815.37 789.571C846.582 784.907 877.776 779.817 909.058 775.662C942.337 771.241 976.217 767.688 1009.28 761.945Z"/>
	<path fill="#5B6B59" d="M1205.82 235.289Q1210.09 233.784 1214.4 232.385Q1218.7 230.987 1223.04 229.694Q1227.38 228.401 1231.75 227.216Q1236.13 226.031 1240.52 224.953Q1244.92 223.876 1249.35 222.907Q1253.77 221.938 1258.21 221.078Q1262.66 220.219 1267.13 219.468Q1271.59 218.718 1276.08 218.078Q1280.56 217.438 1285.06 216.909Q1289.55 216.38 1294.06 215.961Q1298.57 215.542 1303.09 215.235Q1307.61 214.927 1312.13 214.731Q1316.65 214.535 1321.18 214.45Q1325.71 214.365 1330.24 214.392Q1334.77 214.419 1339.29 214.557Q1343.82 214.695 1348.34 214.944C1362.97 215.61 1412.32 219.131 1422.18 229.946C1425.67 231.201 1428.28 232.414 1431.12 234.821L1431.79 237.077C1432.75 239.351 1434.14 241.296 1432.98 243.775C1431.86 246.162 1429.76 247.435 1428.9 250.146C1430.24 253.462 1428.84 257.052 1427.51 260.178C1426.21 263.239 1424.53 266.965 1421.67 268.844C1422.61 274.025 1414.69 284.243 1411.76 288.492C1399.96 305.628 1368.94 345.505 1351.72 354.595C1354.5 358.216 1356.93 364.898 1356.51 369.523C1356.42 370.451 1356.2 371.257 1355.83 372.106L1357.08 376.119C1355.78 378.089 1354.67 378.283 1352.6 379.173C1352.85 378.352 1353.03 377.747 1353.05 376.882C1353.16 371.145 1351.23 362.684 1347.26 358.504C1347.14 358.777 1347.03 359.054 1346.91 359.323C1344.81 363.757 1327.59 376.271 1322.92 378.03L1321.82 372.94C1328.03 369.132 1342.5 359.17 1346.02 353.387C1346.08 352.826 1346.15 352.356 1346.13 351.8C1345.77 344.027 1337.66 323.795 1331.97 318.753C1331.89 318.951 1331.84 319.16 1331.74 319.348C1330.1 322.456 1326.02 324.008 1322.97 325.296C1321.72 324.455 1320.79 323.114 1319.83 321.971C1301.81 339.696 1257.46 365.246 1234.72 377.858C1213.53 390.621 1183.37 404.508 1159.86 412.184C1144.76 419.882 1128.02 424.997 1112.36 431.527C1090.83 440.51 1069.81 450.743 1048.81 460.898C1037.41 467.939 1025.54 474.358 1013.89 480.986C1011.98 479.56 1011.83 477.438 1011.14 475.196C1014.17 473.27 1016.79 470.592 1019.43 468.169L1019.37 462.536C1016 462.244 1015.53 461.788 1013.06 459.696L1012.26 458.984C1013.07 453.079 1015.48 447.234 1017.36 441.591C1017.23 440.911 1017.25 441.159 1017.22 440.536C1017.1 437.871 1017.22 435.905 1015.35 433.766C1024.08 403.87 1056.24 358 1075.63 333.959C1082.3 325.688 1092.41 318.012 1097.67 308.907C1103.93 304.373 1109.74 297.822 1115.55 292.594C1123.47 285.47 1131.82 278.905 1139.92 272.007C1151.48 266.339 1162.59 256.999 1173.84 250.386C1184.01 244.414 1195.29 240.559 1205.82 235.289Z"/>
	<path fill="#FFE9B3" d="M1409.55 247.05C1413.5 246.226 1417.39 245.453 1421.19 244.046C1418.58 247.553 1415.65 249.926 1411.77 251.961C1405.61 257.352 1394.53 267.56 1386.89 270.034C1386.87 270.108 1386.86 270.187 1386.83 270.258C1385.06 274.409 1340.27 307.032 1333.73 310.115C1333.72 309.976 1333.72 309.837 1333.71 309.698C1333.15 303.203 1322.38 287.854 1317.41 283.705C1338.37 277.786 1359.49 267.18 1379.74 258.966C1382.9 257.809 1387.31 256.715 1389.65 254.265C1395.21 253.099 1405.41 250.874 1409.55 247.05Z"/>
	<path fill="#FFE9B3" d="M1396.7 237.792C1402.23 237.932 1408.01 238.43 1413.51 238.136L1417.14 238.997C1415.69 241.172 1408.62 242.54 1405.9 243.237C1399.15 245.816 1392.43 248.534 1385.62 250.931C1363.98 260.083 1335.76 272.873 1313.67 279.476C1313.61 278.89 1313.63 278.688 1313.33 278.086C1309.93 271.06 1293.34 255.478 1286.41 252.301C1291.08 251.41 1296.43 250.884 1300.76 248.873C1307.48 248.402 1320.82 247.016 1326.6 243.954C1335.4 244.144 1345.22 241.972 1354.07 240.941Q1375.31 238.35 1396.7 237.792Z"/>
	<path fill="#FFE9B3" d="M1417.22 233.089C1417.41 232.415 1417.63 231.838 1417.96 231.222C1419.56 228.258 1419.57 230.726 1422.18 229.946C1425.67 231.201 1428.28 232.414 1431.12 234.821L1431.79 237.077C1432.75 239.351 1434.14 241.296 1432.98 243.775C1431.86 246.162 1429.76 247.435 1428.9 250.146C1430.24 253.462 1428.84 257.052 1427.51 260.178C1426.21 263.239 1424.53 266.965 1421.67 268.844L1418.78 266.041C1418.74 266.323 1418.73 266.608 1418.66 266.886C1415.34 282.084 1364.92 340.791 1350.26 348.985C1350.31 348.705 1350.37 348.427 1350.41 348.146C1351.06 343.488 1339.79 319.065 1336.77 315.478C1337.07 315.352 1337.47 315.194 1337.76 315.036C1349.06 309.023 1363.36 295.461 1373.97 287.304C1387.03 277.259 1401.1 268.085 1413.61 257.393C1414.41 256.703 1414.6 256.082 1414.9 255.099L1411.77 251.961C1415.65 249.926 1418.58 247.553 1421.19 244.046C1417.39 245.453 1413.5 246.226 1409.55 247.05L1407.47 246.471L1405.9 243.237C1408.62 242.54 1415.69 241.172 1417.14 238.997L1413.51 238.136C1413.73 237.236 1413.94 236.958 1414.58 236.252C1415.51 235.225 1416.37 234.183 1417.22 233.089Z"/>
	<path fill="#485840" d="M1417.22 233.089C1417.41 232.415 1417.63 231.838 1417.96 231.222C1419.56 228.258 1419.57 230.726 1422.18 229.946C1425.67 231.201 1428.28 232.414 1431.12 234.821L1431.79 237.077C1432.75 239.351 1434.14 241.296 1432.98 243.775C1431.86 246.162 1429.76 247.435 1428.9 250.146C1430.24 253.462 1428.84 257.052 1427.51 260.178C1426.21 263.239 1424.53 266.965 1421.67 268.844L1418.78 266.041C1419.52 265.269 1420.08 264.576 1420.61 263.64C1422.97 259.403 1426.2 252.95 1424.81 248.021C1422.81 251.794 1418.77 253.773 1414.9 255.099L1411.77 251.961C1415.65 249.926 1418.58 247.553 1421.19 244.046C1417.39 245.453 1413.5 246.226 1409.55 247.05L1407.47 246.471L1405.9 243.237C1408.62 242.54 1415.69 241.172 1417.14 238.997L1413.51 238.136C1413.73 237.236 1413.94 236.958 1414.58 236.252C1415.51 235.225 1416.37 234.183 1417.22 233.089Z"/>
	<path fill="#FFE9B3" d="M1249.75 231.835C1248.77 231.042 1247.81 230.28 1246.95 229.349C1280.42 216.98 1379.46 215.414 1413.13 230.852C1414.41 231.437 1414.62 231.748 1415.49 232.878L1417.22 233.089C1416.37 234.183 1415.51 235.225 1414.58 236.252C1413.94 236.958 1413.73 237.236 1413.51 238.136C1408.01 238.43 1402.23 237.932 1396.7 237.792Q1375.31 238.35 1354.07 240.941C1345.22 241.972 1335.4 244.144 1326.6 243.954C1320.82 247.016 1307.48 248.402 1300.76 248.873L1300.62 247.888C1298.21 245.718 1294.93 246.164 1291.75 245.915L1281.14 248.026C1281.04 247.9 1280.96 247.765 1280.85 247.647C1275.23 241.545 1257.93 232.761 1249.75 231.835Z"/>
	<path fill="#506058" d="M1390.49 233.134C1398.77 232.919 1407.26 233.402 1415.49 232.878L1417.22 233.089C1416.37 234.183 1415.51 235.225 1414.58 236.252C1413.94 236.958 1413.73 237.236 1413.51 238.136C1408.01 238.43 1402.23 237.932 1396.7 237.792C1394.29 235.373 1392.91 236.947 1390.49 233.134Z"/>
	<path fill="#506058" d="M1291.75 245.915C1301.74 243.207 1312.36 241.282 1322.6 239.862L1328.27 240.965L1328.7 242.088L1326.6 243.954C1320.82 247.016 1307.48 248.402 1300.76 248.873L1300.62 247.888C1298.21 245.718 1294.93 246.164 1291.75 245.915Z"/>
	<path fill="#5B6B59" d="M1322.6 239.862C1343.7 234.896 1368.82 233.221 1390.49 233.134C1392.91 236.947 1394.29 235.373 1396.7 237.792Q1375.31 238.35 1354.07 240.941C1345.22 241.972 1335.4 244.144 1326.6 243.954L1328.7 242.088L1328.27 240.965L1322.6 239.862Z"/>
	<path fill="#FFE9B3" d="M1235.12 231.628C1238.86 232.319 1242.37 233.643 1245.94 234.908C1252.58 237.319 1271.22 243.676 1274.45 250.064C1268.54 252.337 1262.53 254.104 1256.45 255.862Q1251.1 257.704 1245.8 259.677Q1240.5 261.649 1235.25 263.752Q1230 265.855 1224.8 268.086Q1219.6 270.317 1214.46 272.676Q1209.32 275.034 1204.23 277.519Q1199.15 280.003 1194.13 282.612Q1189.11 285.22 1184.16 287.952Q1179.21 290.683 1174.32 293.536Q1169.44 296.388 1164.62 299.36Q1159.81 302.332 1155.07 305.421Q1150.33 308.51 1145.67 311.716Q1141.01 314.921 1136.43 318.239Q1131.85 321.558 1127.35 324.989Q1122.85 328.419 1118.44 331.959Q1114.03 335.5 1109.71 339.147Q1105.38 342.795 1101.15 346.548C1088.32 358.031 1075.19 376.161 1062.68 385.69C1061.57 388.96 1058.6 391.973 1055.94 394.108C1052.28 402.451 1044.39 411.023 1039.06 418.515C1029.62 431.793 1020.62 445.236 1013.06 459.696L1012.26 458.984C1013.07 453.079 1015.48 447.234 1017.36 441.591C1017.23 440.911 1017.25 441.159 1017.22 440.536C1017.1 437.871 1017.22 435.905 1015.35 433.766C1024.08 403.87 1056.24 358 1075.63 333.959C1082.3 325.688 1092.41 318.012 1097.67 308.907C1103.93 304.373 1109.74 297.822 1115.55 292.594C1123.47 285.47 1131.82 278.905 1139.92 272.007C1151.48 266.339 1162.59 256.999 1173.84 250.386C1184.01 244.414 1195.29 240.559 1205.82 235.289C1207.77 236.361 1209.74 237.613 1211.79 238.47C1219.58 236.954 1227.5 233.942 1235.12 231.628Z"/>
	<path fill="#506058" d="M1205.82 235.289C1207.77 236.361 1209.74 237.613 1211.79 238.47C1202.93 244.899 1189.95 247.555 1180.15 252.935C1169.78 258.623 1151.39 273.643 1141.72 276.966L1139.81 276.598C1139.92 275.063 1139.93 273.545 1139.92 272.007C1151.48 266.339 1162.59 256.999 1173.84 250.386C1184.01 244.414 1195.29 240.559 1205.82 235.289Z"/>
	<path fill="#5B6B59" d="M1139.92 272.007C1139.93 273.545 1139.92 275.063 1139.81 276.598L1141.72 276.966C1140.83 278.845 1103.3 311.281 1101.48 311.955C1101.32 312.012 1101.16 312.058 1101 312.109C1100.19 317.2 1074.02 344.274 1069.28 350.43C1048.55 377.327 1029.53 409.886 1017.36 441.591C1017.23 440.911 1017.25 441.159 1017.22 440.536C1017.1 437.871 1017.22 435.905 1015.35 433.766C1024.08 403.87 1056.24 358 1075.63 333.959C1082.3 325.688 1092.41 318.012 1097.67 308.907C1103.93 304.373 1109.74 297.822 1115.55 292.594C1123.47 285.47 1131.82 278.905 1139.92 272.007Z"/>
	<path fill="#FFE9B3" d="M1255.62 261.077C1262.51 259.84 1274.71 257.375 1280.66 253.89C1287.22 257.036 1305.68 273.249 1308.25 279.935C1308.41 280.365 1308.46 280.771 1308.54 281.228C1303.36 285.731 1251.22 308.987 1241.71 313.682C1224.51 322.181 1207.32 332.333 1189.81 339.947C1175.92 347.637 1161.37 356.614 1146.86 362.976C1143.26 365.489 1139.64 367.754 1135.79 369.876C1129.19 374.206 1122.49 378.118 1115.56 381.881C1103.4 390.497 1090.81 398.527 1078.91 407.505C1071.17 413.348 1063.66 420.98 1055.46 425.99C1051.44 430.282 1046.63 434.624 1041.82 438.018C1039.4 442.896 1022.89 456.919 1018.05 461.575C1024.18 449.315 1057.83 403.756 1058.89 398.982C1059.44 398.73 1059.44 398.75 1060.05 398.353C1063.16 396.298 1067.44 391.71 1068.05 387.966C1073.37 385.331 1077.23 379.277 1081.19 374.956Q1088.9 366.435 1097.12 358.406Q1105.34 350.377 1114.04 342.872Q1122.74 335.366 1131.88 328.412Q1141.03 321.458 1150.59 315.083C1171.77 300.644 1194.58 288.245 1217.65 277.116C1227.06 272.581 1249.17 266.498 1255.62 261.077Z"/>
	<path fill="#FFE9B3" d="M1194.49 342.991C1201.48 341.752 1250.73 315.419 1261.59 310.181C1278.34 302.102 1296.26 294.981 1312.52 286.113C1314.33 287.484 1315.65 288.93 1316.98 290.766C1320.15 295.149 1330.54 308.549 1329.72 313.771C1327.92 317.25 1323.05 319.823 1319.83 321.971C1301.81 339.696 1257.46 365.246 1234.72 377.858C1213.53 390.621 1183.37 404.508 1159.86 412.184C1144.76 419.882 1128.02 424.997 1112.36 431.527C1090.83 440.51 1069.81 450.743 1048.81 460.898C1037.41 467.939 1025.54 474.358 1013.89 480.986C1011.98 479.56 1011.83 477.438 1011.14 475.196C1014.17 473.27 1016.79 470.592 1019.43 468.169C1024.26 463.141 1042.83 448.019 1043.78 443.055C1043.79 441.04 1042.82 439.711 1041.82 438.018C1046.63 434.624 1051.44 430.282 1055.46 425.99C1063.66 420.98 1071.17 413.348 1078.91 407.505C1090.81 398.527 1103.4 390.497 1115.56 381.881C1122.49 378.118 1129.19 374.206 1135.79 369.876L1138.96 370.948C1138.95 372.095 1138.91 372.795 1138.42 373.839C1142.66 372.509 1149.57 369.81 1151.99 366.042C1152.14 366.011 1152.29 365.984 1152.44 365.949C1158.05 364.653 1192.39 346.264 1194.49 342.991Z"/>
	<path fill="#506058" d="M1115.56 381.881C1122.49 378.118 1129.19 374.206 1135.79 369.876L1138.96 370.948C1138.95 372.095 1138.91 372.795 1138.42 373.839C1136.23 377.726 1124.04 384.392 1119.61 385.825C1119.1 385.993 1118.53 386.084 1118 386.189C1116.17 390.469 1103.14 397.389 1098.96 400.259C1090.15 406.299 1066.62 426.177 1059.93 429.167C1057.39 433.464 1048.48 441.233 1043.78 443.055C1043.79 441.04 1042.82 439.711 1041.82 438.018C1046.63 434.624 1051.44 430.282 1055.46 425.99C1063.66 420.98 1071.17 413.348 1078.91 407.505C1090.81 398.527 1103.4 390.497 1115.56 381.881Z"/>
	<path fill="#FFDC74" d="M1448.91 477.247C1458.2 474.764 1469.43 472.28 1479.04 473.902C1506.43 473.083 1541.09 488.017 1560.92 506.68C1569.79 515.027 1578.8 526.896 1579.62 539.473C1579.7 540.673 1579.44 541.864 1579.06 542.995C1588.16 546.039 1596.94 549.579 1601.42 558.8C1605.04 566.251 1604.35 575.334 1601.53 582.927C1596.51 596.462 1584.26 605.566 1571.47 611.23C1565.59 613.837 1558.65 617.118 1552.3 618.084C1542.03 617.999 1514.23 628.958 1502.95 632.269Q1396.92 664.118 1291.59 698.244L1232.01 716.892C1222.02 719.983 1210.97 724.428 1200.59 725.802C1196.14 728.746 1187.86 730.117 1182.61 730.8C1183.1 729.307 1183.58 727.749 1184.27 726.334C1185.53 723.745 1190.5 722.822 1193.15 721.992L1194.71 719.805C1189.63 715.113 1170.54 715.938 1163.7 715.702L1161.61 716.025L1160.79 714.607C1158.13 713.688 1156.74 714.158 1154.04 714.641C1144.95 714.399 1135.85 714.139 1126.79 713.312C1110.99 711.87 1090.01 708.494 1079.2 695.593C1075.9 691.66 1075.19 686.184 1071.86 682.334C1071.75 682.207 1071.64 682.086 1071.52 681.963C1073.73 677.015 1073.45 667.645 1074.58 661.978C1077.98 644.986 1086.35 634.261 1094.82 619.674L1095.11 619.167C1102.97 611.529 1111.08 604.15 1120.1 597.888C1133.21 588.792 1148.58 581.555 1162.53 573.759C1179.95 564.018 1198.04 552.258 1216.55 544.802C1226.42 540.823 1237.02 542.165 1246.97 538.877C1254.7 536.326 1262.23 531.963 1269.62 528.529C1279.86 523.77 1290.3 519.377 1300.66 514.897C1311.11 510.882 1320.1 503.221 1330.83 500.163C1348.65 495.083 1366.65 499.449 1385.76 488.955C1396.35 484.747 1404.4 476.958 1416.12 475.015C1427.06 473.2 1439.14 481.143 1448.91 477.247Z"/>
	<path fill="#FFE9B3" d="M1207.58 569.494C1209.21 569.286 1211.46 568.817 1213.05 569.268C1215.01 569.825 1215.55 570.507 1216.45 572.215C1215.08 574.405 1213.93 574.557 1211.67 575.508C1211.59 575.533 1211.52 575.57 1211.43 575.582C1209.03 575.946 1208.64 575.89 1206.75 574.53C1206.3 572.004 1206.43 571.807 1207.58 569.494Z"/>
	<path fill="#FFE9B3" d="M1090.75 648.489C1092.26 648.242 1093.98 647.88 1095.52 647.969C1097.83 648.104 1099.15 648.968 1100.64 650.593C1099.45 652.798 1098.35 653.027 1096.22 654.099C1093.78 654.618 1093.39 654.64 1091.06 653.776C1089.99 651.372 1090.16 651.089 1090.75 648.489Z"/>
	<path fill="#FFE9B3" d="M1320.71 588.497C1322.06 588.17 1323.57 587.759 1324.97 587.781C1327.57 587.822 1329.37 588.473 1331.24 590.183C1330.16 592.366 1329.46 592.556 1327.32 593.804C1324.9 594.707 1323.46 594.585 1321.16 593.775C1319.97 591.365 1320.13 591.159 1320.71 588.497Z"/>
	<path fill="#FFE9B3" d="M1375.9 604.499Q1377.04 604.271 1378.19 604.101C1381.01 603.692 1384.27 603.506 1386.63 605.287C1385.96 607.74 1385.25 607.928 1383.2 609.501C1383.14 609.541 1383.09 609.593 1383.02 609.62C1380.62 610.668 1379.9 610.697 1377.43 610.13C1375.7 607.803 1375.86 607.44 1375.9 604.499Z"/>
	<path fill="#FFE9B3" d="M1501.93 494.499C1503.76 494.222 1505.86 493.809 1507.7 494.179C1510.14 494.673 1511.41 495.101 1512.81 497.136C1511.57 499.087 1510.36 499.45 1508.23 500.211C1505.92 500.701 1504.68 500.851 1502.53 499.784C1501.17 497.344 1501.32 497.258 1501.93 494.499Z"/>
	<path fill="#FFE9B3" d="M1334.17 565.497C1335.73 565.27 1337.4 564.938 1338.93 565.435C1340.95 566.088 1341.11 566.552 1342.06 568.286C1340.6 570.67 1339.69 570.893 1337.23 572.025C1336.72 572.171 1336.54 572.248 1335.95 572.267C1333.84 572.337 1332.98 572.057 1331.5 570.649C1331.68 567.825 1332.32 567.492 1334.17 565.497Z"/>
	<path fill="#FFE9B3" d="M1233.63 570.496C1235.04 570.278 1236.55 570.008 1237.98 570.07C1240.21 570.166 1241.85 571.017 1243.25 572.697C1242.07 575.128 1240.98 575.323 1238.64 576.503C1235.81 576.844 1234.82 577.244 1232.25 575.813C1231.84 573.19 1232.31 572.857 1233.63 570.496Z"/>
	<path fill="#FFE9B3" d="M1407.28 559.498C1410.17 559.405 1411.61 559.53 1413.73 561.398L1413.33 563.439C1410.61 565.658 1409.37 565.948 1405.9 566.502C1404.64 566.369 1403.72 565.653 1402.65 565.02L1402.41 563.321C1404.15 560.84 1404.47 560.61 1407.28 559.498Z"/>
	<path fill="#FFE9B3" d="M1165.31 687.493C1168.71 687.599 1169.85 687.386 1172.76 689.287L1173.07 691.148C1171.11 693.242 1169.76 693.418 1167.08 694.216C1165.32 694.498 1164.29 694.081 1162.65 693.446L1161.84 691.564C1162.74 689.217 1163.24 688.99 1165.31 687.493Z"/>
	<path fill="#FFE9B3" d="M1425.02 528.499C1426.8 528.204 1428.7 527.836 1430.5 527.852C1433.11 527.875 1434.86 528.291 1436.7 530.083C1435.7 531.946 1434.65 532.365 1432.9 533.501C1430.35 534.523 1428.16 534.74 1425.57 533.731C1424.25 531.338 1424.44 531.204 1425.02 528.499Z"/>
	<path fill="#FFE9B3" d="M1275.93 608.498C1277.73 608.209 1279.66 607.849 1281.49 607.878C1283.99 607.919 1285.98 608.33 1287.79 610.039C1286.52 612.166 1285.45 612.579 1283.34 613.764C1280.72 614.432 1279.25 614.669 1276.59 613.834C1275.16 611.623 1275.55 611.157 1275.93 608.498Z"/>
	<path fill="#FFE9B3" d="M1263.65 564.495C1265.46 564.279 1267.21 564.367 1269.03 564.441C1271.19 565.841 1271.62 565.741 1272.17 568.206C1270.16 570.371 1269.01 570.422 1266.23 571.112C1264.88 571.607 1263.78 571.326 1262.38 571.168L1261.03 569.393C1261.34 566.526 1261.54 566.506 1263.65 564.495Z"/>
	<path fill="#FFE9B3" d="M1143 608.497C1144.26 608.244 1145.54 608.001 1146.82 607.883C1149.45 607.642 1152.6 607.887 1154.7 609.598C1154.18 612.109 1153.43 612.115 1151.38 613.536C1148.68 614.235 1146.73 614.75 1143.92 614.022C1142.19 611.65 1142.55 611.453 1143 608.497Z"/>
	<path fill="#FFE9B3" d="M1452.84 576.499C1454.65 576.173 1456.68 575.719 1458.52 575.786C1460.99 575.875 1462.49 576.741 1464.06 578.514C1462.66 580.806 1461.56 581.136 1459.23 582.315C1458.02 582.803 1455.96 582.949 1454.74 582.535C1452.82 581.89 1452.72 581.233 1451.84 579.54L1452.84 576.499Z"/>
	<path fill="#FFE9B3" d="M1527.96 538.498C1529.55 538.166 1531.4 537.68 1533.02 537.758C1535.45 537.876 1536.96 538.921 1538.49 540.647C1537.78 542.821 1537.26 543.087 1535.45 544.558C1534.86 544.844 1534.8 544.905 1534.05 545.081C1531.79 545.615 1530.13 545.528 1528.14 544.365C1527.01 541.78 1527.35 541.141 1527.96 538.498Z"/>
	<path fill="#FFE9B3" d="M1256.72 657.497C1258.95 657.139 1261.63 656.543 1263.82 657.238C1265.81 657.869 1266.5 658.22 1267.5 660.115C1265.97 662.194 1264.61 662.51 1262.29 663.502C1261.98 663.61 1261.68 663.761 1261.36 663.825C1259.09 664.274 1257.43 663.943 1255.61 662.671C1255.22 659.985 1255.35 659.861 1256.72 657.497Z"/>
	<path fill="#FFE9B3" d="M1330.18 530.499C1331.89 530.25 1333.93 529.849 1335.64 530.237C1337.88 530.748 1338.99 531.241 1340.27 533.188C1339.01 535.208 1337.7 535.515 1335.63 536.502C1334.82 536.829 1333.88 537.234 1332.99 537.312C1330.63 537.521 1329.76 536.84 1328.08 535.438C1328.02 532.699 1328.39 532.634 1330.18 530.499Z"/>
	<path fill="#FFE9B3" d="M1205.52 660.496C1209.05 660.24 1210.69 660.179 1213.71 662.184L1214.08 664.112C1212.43 666.421 1210.89 666.857 1208.31 667.607C1207.98 667.642 1207.65 667.707 1207.32 667.711C1204.88 667.744 1204.14 667.092 1202.52 665.514C1202.89 662.576 1203.29 662.529 1205.52 660.496Z"/>
	<path fill="#FFE9B3" d="M1502.96 570.499C1505.25 570.239 1507.98 569.709 1510.22 570.397C1512.22 571.013 1512.73 571.29 1513.76 573.122C1512.75 575.141 1511.33 575.664 1509.37 576.633C1509.21 576.7 1509.04 576.782 1508.87 576.835C1506.1 577.69 1504.41 577.205 1502.05 575.876C1501.38 573.245 1501.77 572.996 1502.96 570.499Z"/>
	<path fill="#FFE9B3" d="M1304.51 633.496C1306.8 633.203 1309.02 632.795 1311.18 633.81C1312.95 634.639 1313.21 634.852 1313.93 636.756C1312.51 638.705 1311.38 639.021 1309.23 639.985C1309.07 640.026 1308.91 640.078 1308.75 640.109C1306.17 640.607 1304.13 640.354 1302 638.939C1301.89 636.092 1302.77 635.618 1304.51 633.496Z"/>
	<path fill="#FFE9B3" d="M1182.63 638.494C1183.65 638.333 1184.74 638.133 1185.78 638.147C1188.5 638.184 1189.13 638.809 1191.02 640.553L1190.82 642.652C1188.66 644.658 1187.31 644.817 1184.52 645.507C1184.3 645.555 1184.09 645.637 1183.86 645.651C1181.67 645.791 1180.85 645.365 1179.46 643.807C1179.89 640.663 1180.36 640.494 1182.63 638.494Z"/>
	<path fill="#FFE9B3" d="M1473.99 533.499C1475.63 533.242 1477.33 532.958 1478.99 532.941C1481.53 532.916 1483.79 533.283 1485.65 535.087C1484.84 537.357 1484.27 537.494 1482.24 538.873L1480.52 539.974C1477.61 540.172 1476.57 540.426 1473.94 538.982C1472.87 536.345 1473.07 536.229 1473.99 533.499Z"/>
	<path fill="#FFE9B3" d="M1380.58 542.497C1384.24 542.048 1385.85 542.337 1388.99 544.186L1389.48 546.168C1387.35 548.394 1386.22 548.637 1383.36 549.502C1381.59 550.002 1380.52 549.944 1378.74 549.476C1377.86 549.244 1377.57 548.24 1377.12 547.47C1377.84 544.685 1378.48 544.303 1380.58 542.497Z"/>
	<path fill="#FFE9B3" d="M1119.62 620.493C1119.77 620.473 1119.93 620.45 1120.09 620.434C1120.35 620.407 1120.61 620.391 1120.87 620.365C1122.85 620.165 1124.79 619.849 1126.7 620.579C1128.71 621.342 1129.44 621.624 1130.36 623.645C1128.88 625.719 1127.43 626.067 1125.19 627.074C1124.29 627.635 1123.77 627.889 1122.68 627.98C1120.28 628.18 1120.22 628.035 1118.47 626.539C1118.03 623.522 1118.22 623.23 1119.62 620.493Z"/>
	<path fill="#5B6B59" d="M1448.91 477.247C1458.2 474.764 1469.43 472.28 1479.04 473.902C1506.43 473.083 1541.09 488.017 1560.92 506.68C1569.79 515.027 1578.8 526.896 1579.62 539.473C1579.7 540.673 1579.44 541.864 1579.06 542.995C1581.68 549.836 1579.34 558.933 1576.49 565.392C1571.56 576.579 1560.82 588.967 1549.08 593.193Q1547.92 593.623 1546.71 593.88L1542.69 590.903C1546.92 589.071 1550.95 587.149 1554.76 584.52C1565.37 577.199 1573 566.437 1575.11 553.607C1577.14 541.224 1573.43 529.496 1566.14 519.486C1547.78 494.246 1514.46 483.726 1485.01 479.154C1473.36 478.915 1462.87 479.746 1451.46 482.05C1458.54 487.481 1479.87 500.423 1480.74 509.882C1480.8 510.505 1480.76 511.102 1480.71 511.72L1479.84 512.654C1475.18 511.031 1471.38 504.589 1467.76 501.23C1451.78 486.416 1426.35 473.694 1404.9 484.133C1400.83 486.115 1396.39 489.152 1391.97 490.075L1391.62 488.912Q1388.69 488.969 1385.76 488.955C1396.35 484.747 1404.4 476.958 1416.12 475.015C1427.06 473.2 1439.14 481.143 1448.91 477.247Z"/>
	<path fill="#506058" d="M1385.76 488.955Q1388.69 488.969 1391.62 488.912L1391.97 490.075C1387.81 496.668 1367.86 499.734 1360.15 501.483C1359.75 501.575 1359.34 501.659 1358.94 501.738C1373.88 505.5 1392.93 515.001 1404.16 525.527L1404.89 528.934L1404.07 528.566C1381.92 518.603 1355.3 495.334 1329.27 505.324C1320.58 508.658 1312.93 515.38 1303.63 517.058C1301.18 519.979 1255.46 539.804 1250.05 541.422C1271.35 544.037 1301.42 554.469 1316.69 569.901L1316.75 571.285C1307.94 572.148 1268.54 536.747 1223.32 547.638C1199.15 553.459 1176.59 574.434 1155.16 581.233C1177.92 580.622 1205.21 583.316 1222.95 599.433C1223.65 600.071 1224.2 600.839 1224.69 601.646C1217.38 602.294 1207.5 595.043 1200.93 592.196C1181.99 583.997 1157.64 583.465 1138.65 591.729C1127.03 596.787 1117.41 604.964 1107.87 613.132C1105.09 615.515 1101.98 619.291 1098.76 620.848L1095.11 619.167C1102.97 611.529 1111.08 604.15 1120.1 597.888C1133.21 588.792 1148.58 581.555 1162.53 573.759C1179.95 564.018 1198.04 552.258 1216.55 544.802C1226.42 540.823 1237.02 542.165 1246.97 538.877C1254.7 536.326 1262.23 531.963 1269.62 528.529C1279.86 523.77 1290.3 519.377 1300.66 514.897C1311.11 510.882 1320.1 503.221 1330.83 500.163C1348.65 495.083 1366.65 499.449 1385.76 488.955Z"/>
	<path fill="#485840" d="M1234.79 696.097C1249.49 694.403 1274.44 680.553 1289.58 675.284C1316.31 665.987 1344.38 662.166 1371.21 652.608C1404.81 640.642 1436.45 623.199 1470.26 611.328C1494 602.991 1519.49 600.708 1542.69 590.903L1546.71 593.88C1537.99 602.204 1487.65 610.379 1472.81 615.437C1438.68 627.066 1406.73 643.564 1373.13 656.333C1347.1 666.227 1319.9 670.357 1293.5 678.774C1270.81 686.007 1249.47 697.196 1226.65 704.055Q1217.05 706.985 1207.25 709.11Q1197.44 711.235 1187.49 712.54C1179.86 713.566 1171.04 713.638 1163.7 715.702L1161.61 716.025L1160.79 714.607C1158.13 713.688 1156.74 714.158 1154.04 714.641C1144.95 714.399 1135.85 714.139 1126.79 713.312C1110.99 711.87 1090.01 708.494 1079.2 695.593C1075.9 691.66 1075.19 686.184 1071.86 682.334C1071.75 682.207 1071.64 682.086 1071.52 681.963C1073.73 677.015 1073.45 667.645 1074.58 661.978C1077.98 644.986 1086.35 634.261 1094.82 619.674L1095.11 619.167L1098.76 620.848C1097.83 625.626 1089.85 635.89 1087.27 641.058C1084.11 647.4 1082.21 654.885 1078.75 660.924C1081.26 662.423 1081.27 662.368 1082.01 665.261C1084.8 676.127 1087.12 683.004 1097.23 689.105C1113.11 698.682 1136.46 701.15 1154.62 700.741C1162.21 700.57 1170.33 699.425 1177.85 699.94C1186.23 698.775 1194.97 698.539 1203.42 697.874C1208.57 698.217 1214.06 697.373 1218.93 699.128L1220.58 701.047C1224.77 700.411 1232.06 699.538 1234.79 696.097Z"/>
	<path fill="#FFC176" d="M1078.75 660.924C1081.26 662.423 1081.27 662.368 1082.01 665.261C1084.8 676.127 1087.12 683.004 1097.23 689.105C1113.11 698.682 1136.46 701.15 1154.62 700.741C1162.21 700.57 1170.33 699.425 1177.85 699.94C1186.23 698.775 1194.97 698.539 1203.42 697.874C1208.57 698.217 1214.06 697.373 1218.93 699.128L1220.58 701.047C1217.98 703.164 1213.97 703.498 1210.73 703.855C1203.75 708.941 1168.18 710.557 1158.79 710.698C1137.99 711.008 1100.28 710.204 1084.3 694.189C1074.69 684.559 1078.71 673.304 1078.75 661.53L1078.75 660.924Z"/>
	<path fill="#FFC176" d="M1579.06 542.995C1588.16 546.039 1596.94 549.579 1601.42 558.8C1605.04 566.251 1604.35 575.334 1601.53 582.927C1596.51 596.462 1584.26 605.566 1571.47 611.23C1565.59 613.837 1558.65 617.118 1552.3 618.084C1542.03 617.999 1514.23 628.958 1502.95 632.269Q1396.92 664.118 1291.59 698.244L1232.01 716.892C1222.02 719.983 1210.97 724.428 1200.59 725.802C1196.14 728.746 1187.86 730.117 1182.61 730.8C1183.1 729.307 1183.58 727.749 1184.27 726.334C1185.53 723.745 1190.5 722.822 1193.15 721.992L1194.71 719.805C1189.63 715.113 1170.54 715.938 1163.7 715.702C1171.04 713.638 1179.86 713.566 1187.49 712.54Q1197.44 711.235 1207.25 709.11Q1217.05 706.985 1226.65 704.055C1249.47 697.196 1270.81 686.007 1293.5 678.774C1319.9 670.357 1347.1 666.227 1373.13 656.333C1406.73 643.564 1438.68 627.066 1472.81 615.437C1487.65 610.379 1537.99 602.204 1546.71 593.88Q1547.92 593.623 1549.08 593.193C1560.82 588.967 1571.56 576.579 1576.49 565.392C1579.34 558.933 1581.68 549.836 1579.06 542.995Z"/>
	<path fill="#5B6B59" d="M292.367 371.756C292.591 352.591 291.044 319.507 296.679 302.049C301.007 288.637 311.991 280.712 324.011 274.585C396.661 237.55 562.639 237.982 640.51 263.33C657.536 268.872 680.53 278.181 688.943 295.329C697.045 311.841 693.977 343.417 693.972 362.008C693.951 442.07 688.926 522.014 669.63 599.965C661.546 632.624 650.731 664.328 640.191 696.24C633.569 717.823 625.538 758.556 604.948 769.629C594.918 775.023 582.696 777.155 571.617 779.414C518.418 790.264 447.383 792.13 395.194 775.737C381.452 771.421 372.675 763.921 366.085 751.168Q363.808 746.748 362.023 742.107Q355.327 723.964 349.294 705.589C313.555 699.009 277.408 680.898 251.324 655.584C207.519 613.071 196.971 554.781 187.311 497.244C184.017 477.62 179.535 457.249 179.328 437.299C179.127 417.886 184.366 399.238 198.302 385.168C202.556 380.874 207.669 376.683 213.289 374.392C233.595 366.115 269.751 371.877 292.367 371.756Z"/>
	<path fill="#FFE9B3" d="M248.073 418.351C262.878 417.666 278.464 421.64 292.642 425.487C293.398 472.89 296.894 520.795 307.793 567.056C314.781 596.719 324.597 625.684 333.225 654.902L320.92 649.073Q310.93 644.79 301.842 638.828C270.251 617.877 252.176 579.853 244.909 543.656C240.851 523.443 238.382 503.164 235.483 482.774C233.549 469.172 230.333 454.787 230.826 441.059C231.02 435.666 232.166 429.856 235.295 425.346C238.482 420.752 242.818 419.388 248.073 418.351Z"/>
	<path fill="#FFE9B3" d="M190.5 416.7C194.413 403.215 201.507 391.121 214.225 384.152C232.048 374.387 271.101 380.294 292.248 380.191L292.788 416.272C276.067 412.454 250.384 404.534 234.758 414.248C228.388 418.208 224.526 424.869 222.891 432.066C218.633 450.814 234.763 544.933 240.656 564.065C245.539 579.922 252.954 595.996 262 609.914C279.936 637.509 304.666 655.08 336.055 664.548C339.64 674.956 343.406 685.338 346.479 695.911C298.681 683.582 256.488 658.903 230.852 615.461C208.899 578.26 203.742 536.568 196.125 494.951C193.898 482.78 189.514 467.753 189.941 455.385C186.959 443.421 187.656 428.605 190.5 416.7Z"/>
	<path fill="#FFE9B3" d="M484.501 254.419C531.518 251.573 639.42 259.443 674.843 290.293C678.634 293.594 681.68 297.604 681.986 302.786C682.226 306.866 680.874 310.385 678.079 313.319C655.999 336.494 536.911 345.305 503.75 345.992C450.903 346.345 396.81 343.776 345.816 328.702C335.03 325.513 321.852 321.549 313.164 314.079C309.979 311.341 307.147 307.629 306.967 303.273C306.806 299.363 308.811 295.846 311.38 293.048C339.986 261.899 443.812 256.445 484.501 254.419Z"/>
	<path fill="#FFE9B3" d="M302.745 316.457C323.62 334.316 357.211 342.291 383.713 346.292Q390.999 347.394 398.306 348.342Q405.613 349.291 412.939 350.086Q420.264 350.881 427.605 351.522Q434.945 352.163 442.298 352.649Q449.65 353.136 457.011 353.468Q464.372 353.801 471.738 353.978Q479.105 354.156 486.473 354.179Q493.842 354.202 501.209 354.07Q508.576 353.939 515.939 353.652Q523.302 353.366 530.657 352.925Q538.013 352.484 545.357 351.889Q552.702 351.294 560.032 350.545Q567.362 349.796 574.675 348.893Q581.988 347.99 589.281 346.934Q596.573 345.878 603.842 344.669Q611.11 343.459 618.352 342.098C641.223 337.619 665.832 332.667 684.934 318.595C684.468 369.866 685.435 420.966 681.534 472.168C675.722 548.441 657.164 621.681 631.56 693.517C626.626 709.398 617.694 748.548 605.574 758.85C584.181 777.034 489.472 779.67 460.37 777.537C439.935 776.038 392.866 772.263 379.856 756.686C367.088 741.399 356.184 698.663 349.989 678.4C338.333 640.268 324.612 602.166 315.837 563.268C303.515 508.65 301.718 453.192 301.225 397.454C300.986 370.477 300.639 343.37 302.745 316.457Z"/>
	<path fill="#5B6B59" d="M441.83 379.169C443.581 379.35 444.753 379.968 446.292 380.792C447.534 383.964 447.013 385.477 446.539 388.804C444.608 388.544 443.432 388.131 441.816 387.038C440.682 383.98 441.302 382.348 441.83 379.169Z"/>
	<path fill="#FFC176" d="M624.36 464.408C628.729 462.565 647.804 465.626 652.681 467.637C653.09 467.805 653.706 468.199 654.05 468.404C639.379 479.502 617.976 483.024 600.408 487.187C607.596 479.169 616.607 471.953 624.36 464.408Z"/>
	<path fill="#FFC176" d="M338.861 475.159C336.685 473.55 335.676 472.944 334.51 470.424C334.908 468.873 334.939 468.173 336.105 467.012C346.804 456.36 424.23 444.034 441.862 444.57L442.001 446.119C429.619 453.864 417.685 462.458 405.649 470.729C397.317 476.455 388.14 482.034 380.471 488.595C366.778 485.467 350.85 482.852 338.861 475.159Z"/>
	<path fill="#FFC176" d="M556.797 445.426C559.758 443.752 561.759 443.676 564.931 444.588C574.598 447.364 583.873 451.645 593.438 454.781C599.177 456.662 614.925 459.122 618.909 462.498Q604.747 475.807 590.316 488.825C558.191 496.024 523.913 496.781 491.14 497.408C499.925 489.935 509.454 483.259 518.523 476.118C531.374 466.001 543.879 455.467 556.797 445.426Z"/>
	<path fill="#5B6B59" d="M374.507 711.811C343.141 663.652 321.12 516.892 316.848 457.627Q315.345 436.256 315.298 414.833Q315.25 393.409 316.658 372.032C316.947 367.515 318.163 351.029 321.524 348.072C321.937 360.672 320.141 373.494 319.41 386.089C318.607 399.933 318.822 413.852 319.138 427.708C320.985 508.769 340.136 636.594 375.951 708.628C385.764 725.352 400.302 735.659 418.813 741.07C459.509 752.967 551.585 752.545 589.268 731.581C605.823 722.37 617.461 700.871 622.565 683.153C635.241 655.146 643.621 603.159 650.522 571.84C657.447 536.65 663.992 499.583 666.282 463.771C666.331 463.588 666.384 463.406 666.431 463.223C671.991 441.771 672.017 406.338 671.641 383.757C671.551 378.366 668.417 360.925 670.671 357.384C673.776 359.845 674.092 365.225 674.512 368.934C678.788 406.761 673.154 445.962 668.219 483.432Q662.527 529.871 653.733 575.823C644.518 616.754 630.238 710.597 594.373 733.128C557.095 756.547 470.056 757.371 426.547 747.34C404.709 742.306 387.101 732.555 375.19 713.142C374.731 712.394 374.881 712.654 374.507 711.811Z"/>
	<path fill="#FFC176" d="M444.785 450.617C475.349 432.399 511.52 432.174 545.233 440.032C547.963 440.669 552.355 441.152 553.84 443.536C542.13 450.806 531.448 459.92 520.525 468.319C507.788 478.113 494.597 487.6 482.33 497.969C450.31 497.105 419.928 494.531 388.421 488.781Q416.494 469.538 444.785 450.617Z"/>
	<path fill="#FFC176" d="M658.219 472.928C662.893 480.435 643.963 573.594 640.55 588.282C632.332 623.654 624.286 660.079 609.466 693.37C604.052 698.91 600.28 706.503 594.543 712.243C571.52 735.278 524.714 739.975 494.026 740.137C463.563 740.297 420.165 739.521 397.142 716.274C363.403 682.205 347.099 584.631 338.927 537.265C335.658 518.32 330.978 498.285 331.023 479.063L331.983 478.208L336.221 479.901C357.184 490.751 393.994 495.909 417.551 499.039Q423.569 499.885 429.604 500.593Q435.639 501.302 441.69 501.872Q447.74 502.442 453.801 502.874Q459.862 503.306 465.932 503.6Q472.002 503.893 478.077 504.048Q484.152 504.202 490.229 504.218Q496.305 504.234 502.381 504.111Q508.457 503.988 514.528 503.726Q520.599 503.464 526.662 503.064Q532.726 502.664 538.779 502.125Q544.832 501.586 550.871 500.909Q556.91 500.232 562.932 499.418Q568.954 498.603 574.956 497.651Q580.958 496.699 586.936 495.61Q592.914 494.521 598.867 493.296Q604.819 492.071 610.741 490.71C626.048 487.127 645.548 482.642 658.219 472.928Z"/>
</svg>
